<?xml version="1.0" encoding="UTF-8"?>
<svg version="1.1" viewBox="0 0 2000 2000" width="500" height="500" xmlns="http://www.w3.org/2000/svg">
<path transform="translate(1570,97)" d="m0 0h85l12 1 10 6 7 8 6 13 11 29 4 3 20 7 19 8 15 7h6l31-14 13-4 10 1 12 6 67 67 5 9 2 7-1 10-6 16-10 22-1 8 13 29 8 22 2 6 18 7 20 8 11 7 6 8 3 8v100l-4 10-7 8-16 8-31 12-5 15-9 22-9 19v7l14 31 4 13-1 10-3 8-9 11-43 43-8 7-7 8-1 668-2 22-5 20-7 18-11 19-10 13-11 12-10 9-17 12-16 8-13 5-14 4-17 3-17 1h-385v129h163l22 3 15 4 18 7 17 10 10 8 10 9 9 10 9 14 6 12 4 13 1 5 1 14v87l-2 10-6 9-7 6-7 3-5 1h-1071l-12-6-8-9-4-10v-98l5-21 7-16 10-15 14-15 12-9 11-7 16-8 18-6 20-4 7-1 164-1 1-128h-79l8 19 1 4v15l-5 10-14 15-49 49-11 8-8 3h-10l-16-6-28-13-5 1-21 10-23 9-12 4-4 10-11 28-5 9-9 8-7 3h-106l-10-7-7-8-11-27-5-14-5-3-22-8-27-12-3-2h-7l-24 11-18 7h-10l-12-5-12-11-21-21v-2l-4-2v-2l-4-2-4-4v-2l-3-1-6-7-8-7-10-12-4-12 1-10 8-20 9-20v-7l-11-23-9-24-3-10-10-3-28-11-10-6-6-7-4-9-1-6v-89l2-10 5-9 8-7 8-4 31-12 5-3 10-27 9-21 4-8v-6l-16-36-2-9 1-10 5-10 11-12 54-54 11-7 2-1h16l15 6v-505l1-31 3-19 4-16 8-19 8-15 12-16 11-12 10-9 14-10 18-10 19-7 17-4 7-1 27-1h890v-17l3-10 7-9 10-6 29-11 9-4 4-10 11-28 8-17 1-1v-6l-15-34-2-6v-16l4-9 11-12 56-56 10-6 8-2 10 1 16 6 18 8 8 4 5-1 25-12 27-10 4-2 11-27 6-15 6-8 7-5 5-2z" fill="#010000"/>
<path transform="translate(374,583)" d="m0 0h961l7 14-1 7-9 20-7 17-1 4v11l4 10 9 10 59 59 6 4 6 2 11 1 13-4 30-13 5-2 14 7 26 11 15 5 5 2 14 37 5 9 4 5 12 6 7 1h89l13-1v478l-1 1-990 1-4-8-8-21-8-17-2-4 1-7 9-21 6-13 2-8v-8l-3-10-7-9-60-60-11-7-12-2-10 2-29 13-9 4-6-2-26-12-29-10-4-9-11-28-6-11-8-7-8-3-63-1-1-2v-440z" fill="#D5EBFD"/>
<path transform="translate(364,1087)" d="m0 0h41l5 2 6 17 8 20 6 7 9 5 25 8 18 7 25 12 8 5 11 4h9l13-4 26-12 5 1 5 5v2l4 2 16 16v2l4 2-1 6-9 20-5 13-1 10 3 11 16 31 9 24 7 23 4 8 7 7 16 7 23 9 1 1 1 36-1 8-5 3-28 11-9 5-6 7-5 13-7 23-10 24-8 15-6 12-1 4v13l4 11 10 24 1 1v5l-16 16h-2l-2 4h-2l-2 4-6 5-6-1-21-9-13-5h-11l-10 3-26 14-19 8-15 5-18 5-10 6-6 9-11 29-2 6-4 1h-42l-4-8-11-28-6-8-6-5-16-6-17-5-18-7-17-8-19-10-4-1h-11l-16 6-20 9-7-1-4-4v-2l-4-2-18-18-2-3 1-5 7-17 5-11 3-11-1-10-20-40-8-21-6-21-5-10-8-7-19-8-18-7-2-3v-39l2-6 21-7 16-7 8-7 4-8 8-25 8-21 8-16 9-17 3-10-1-11-7-17-8-18 1-4 9-10 20-20 5 1 30 13 6 2h10l11-4 16-9 22-10 20-7 20-6 9-6 7-10 13-34z" fill="#010000"/>
<path transform="translate(1607,159)" d="m0 0h13l16 1 4 8 8 21 6 12 8 7 11 4 23 7 24 10 30 15 4 1h11l16-6 13-5 7-4 7 1 7 8 20 20 1 4-12 27-3 8-1 11 3 11 18 35 9 25 6 20 6 9 7 5 20 8 17 7 1 43-1 3-36 14-8 6-5 7-13 39-11 24-12 23-1 13 4 13 10 23 2 3-1 5-24 24-6 5-5-1-27-12-10-3h-8l-11 4-31 16-24 9-23 7-8 5-6 7-16 38-1 1h-43l-5-10-7-19-6-12-4-5-14-7-24-7-26-11-24-13-11-3h-7l-15 5-24 11-4-1-29-29-1-3 3-4 9-21 4-12 1-10-4-12-12-22-9-21-10-32-4-8-5-6-16-8-26-10-1-2v-42l3-3 33-13 9-6 5-7 5-15 5-16 6-16 11-23 8-16 1-4v-11l-5-13-10-23v-5l8-9h2l2-4 9-8 3-4h2l2-4 5-2 15 7 19 8 3 1h12l10-4 27-14 20-8 30-9 8-5 6-7 7-16 7-17 2-5z" fill="#010000"/>
<path transform="translate(1758,724)" d="m0 0 7 1 6 3v454l1 158v51l-1 18-4 18-6 14-8 11-7 8-10 9-13 8-12 5-12 3-8 1h-1014l-1-3 3-7 2-7 4-3 28-11 12-5 8-6 5-9 1-4 1-83 4-2h888l75-1 11-4 9-8 4-9 1-7 1-581 20-9z" fill="#FBFCFC"/>
<path transform="translate(583,1738)" d="m0 0h865l16 1 17 4 16 8 13 11 7 10 4 11v56l-2 1h-995l-1-1v-56l3-10 8-11 7-7 14-9 10-4 10-3z" fill="#FAFBFB"/>
<path transform="translate(364,1087)" d="m0 0h41l5 2 6 17 8 20 6 7 9 5 25 8 18 7 25 12 8 5 11 4h9l13-4 26-12 5 1 5 5v2l4 2 16 16v2l4 2-1 6-9 20-5 13-1 10 3 11 16 31 9 24 7 23 4 8 7 7 16 7 23 9 1 1 1 36-1 8-5 3-28 11-9 5-6 7-5 13-7 23-10 24-8 15-6 12-1 4v13l4 11 10 24 1 1v5l-16 16h-2l-2 4h-2l-2 4-6 5-6-1-21-9-13-5h-11l-10 3-26 14-19 8-15 5-18 5-10 6-6 9-11 29-2 6-4 1h-42l-4-8-11-28-6-8-6-5-16-6-17-5-18-7-17-8-19-10-4-1h-11l-16 6-20 9-7-1-4-4v-2l-4-2-18-18-2-3 1-5 7-17 5-11 3-11-1-10-20-40-8-21-6-21-5-10-8-7-19-8-18-7-2-3v-39l2-6 21-7 16-7 8-7 4-8 8-25 8-21 8-16 9-17 3-10-1-11-7-17-8-18 1-4 9-10 20-20 5 1 30 13 6 2h10l11-4 16-9 22-10 20-7 20-6 9-6 7-10 13-34zm11 96-19 2-20 4-24 8-21 10-19 12-14 11-13 12-11 12-13 18-11 19-10 23-6 21-3 15-2 22v17l2 21 3 15 5 18 8 20 10 19 11 16 8 10 12 13 14 13 17 12 13 8 22 10 18 6 18 4 26 3h16l21-2 14-2 19-5 21-8 19-10 14-9 13-10 12-11 10-10 13-17 11-18 10-21 7-20 5-23 2-20v-21l-2-21-5-22-7-21-9-19-12-20-11-14-12-13-13-12-12-9-14-9-19-10-21-8-24-6-12-2-11-1z" fill="#FBE17E"/>
<path transform="translate(1607,159)" d="m0 0h13l16 1 4 8 8 21 6 12 8 7 11 4 23 7 24 10 30 15 4 1h11l16-6 13-5 7-4 7 1 7 8 20 20 1 4-12 27-3 8-1 11 3 11 18 35 9 25 6 20 6 9 7 5 20 8 17 7 1 43-1 3-36 14-8 6-5 7-13 39-11 24-12 23-1 13 4 13 10 23 2 3-1 5-24 24-6 5-5-1-27-12-10-3h-8l-11 4-31 16-24 9-23 7-8 5-6 7-16 38-1 1h-43l-5-10-7-19-6-12-4-5-14-7-24-7-26-11-24-13-11-3h-7l-15 5-24 11-4-1-29-29-1-3 3-4 9-21 4-12 1-10-4-12-12-22-9-21-10-32-4-8-5-6-16-8-26-10-1-2v-42l3-3 33-13 9-6 5-7 5-15 5-16 6-16 11-23 8-16 1-4v-11l-5-13-10-23v-5l8-9h2l2-4 9-8 3-4h2l2-4 5-2 15 7 19 8 3 1h12l10-4 27-14 20-8 30-9 8-5 6-7 7-16 7-17 2-5zm-5 96-24 3-21 5-17 6-25 12-17 11-11 9-10 9-13 13-13 17-8 13-8 15-8 21-6 20-3 17-1 11v31l2 17 4 18 5 16 6 15 11 21 8 12 11 14 20 20 17 13 20 12 21 10 21 7 20 4 20 2h22l19-2 20-4 24-8 21-10 16-10 12-9 10-9 8-7 9-10 13-17 9-15 8-16 7-18 6-22 3-19 1-12v-21l-3-23-6-24-8-21-10-19-11-17-8-10-9-10-8-9-11-9-13-10-19-11-17-8-21-7-23-5-18-2z" fill="#FCE17D"/>
<path transform="translate(356,483)" d="m0 0h903l1 17 3 10 3 5 5 5v2h-914l-13 2-12 6-9 8-7 11-3 8-1 6-1 490-9 23-4 9-22 8-3-1v-533l4-16 8-16 7-11 14-14 16-10 12-5 13-3z" fill="#F7F8F9"/>
<path transform="translate(374,1245)" d="m0 0h25l15 2 17 5 12 5 15 8 16 12 15 15 12 17 6 10 8 20 4 15 2 14v24l-3 19-5 16-8 18-9 14-8 10-9 10-11 9-15 10-19 9-21 6-11 2-20 1-19-2-17-4-19-8-16-9-13-10-12-11-10-12-11-18-6-13-6-19-3-21v-19l3-20 7-21 8-16 7-11 8-10 5-6 8-7 9-8 16-10 16-8 12-4 14-3z" fill="#FBFCFC"/>
<path transform="translate(1599,317)" d="m0 0h29l17 3 16 5 16 7 16 10 10 8 10 9 9 11 9 13 8 16 5 13 4 18 2 17v10l-3 23-5 17-7 17-10 16-9 11-9 10-12 10-14 9-14 7-21 7-19 3h-29l-20-4-17-6-19-10-12-9-12-10-7-8-9-12-9-15-7-16-4-13-3-17v-29l3-18 6-18 8-16 6-10 10-13 16-16 16-11 19-10 19-6z" fill="#FAFBFC"/>
<path transform="translate(809,1548)" d="m0 0h426l1 1v127l-16 1-412-1v-127z" fill="#A49CA6"/>
<path transform="translate(866,761)" d="m0 0h8l10 3 8 6 6 8 3 10v8l-3 10-4 6-7 7-11 9-15 13-11 9-14 12-11 9-14 12-11 9-14 12-11 9-14 12-10 8 4 5 10 8 26 22 11 9 14 12 17 14 10 9 11 9 15 13 11 9 10 9 7 8 3 7 1 9-2 10-4 8-8 7-8 4-5 1h-8l-10-3-9-6-13-11-11-9-52-44-11-9-28-24-11-9-15-13-11-9-14-12-6-7-4-9v-14l3-8 9-10 12-11 11-9 13-11 17-14 10-9 11-9 15-13 11-9 14-12 13-11 14-12 11-9 13-11 10-6z" fill="#010000"/>
<path transform="translate(1170,761)" d="m0 0h9l9 3 11 7 10 9 11 9 15 13 26 22 11 9 15 13 14 12 11 9 14 12 13 11 11 9 15 13 6 9 3 8v8l-3 10-6 8-7 7-11 9-15 13-11 9-14 12-13 11-11 9-14 12-11 9-14 12-11 9-15 13-13 11-13 10-8 4-4 1h-9l-9-2-9-6-6-8-3-7-1-8 2-10 4-8 9-9 11-9 15-13 11-9 14-12 11-9 15-13 10-8 15-13 11-9 10-9 11-9v-3l-15-13-8-6v-2l-4-2-13-11-11-9-14-12-11-9-13-11-11-9-14-12-11-9-15-13-6-9-2-4-1-10 2-10 6-10 9-7z" fill="#010000"/>
<path transform="translate(1071,710)" d="m0 0 10 1 9 4 8 7 5 8 1 3v15l-6 24-11 40-7 27-20 76-13 48-20 75-21 78-6 21-6 10-9 7-9 3h-9l-10-3-9-6-6-9-2-6v-13l5-21 26-97 48-178 11-41 13-48 4-9 6-8 9-6z" fill="#010000"/>
<path transform="translate(583,1738)" d="m0 0h865l16 1 17 4 2 2-7-1-9-2-10-1h-865l-18 2-16 5-11 6-10 8-6 8-5 9-1-3 5-9 9-10 11-8 11-6 14-4z" fill="#D3E7F9"/>
<path transform="translate(1770,1182)" d="m0 0h1l1 158v51l-1 18-4 18-6 14-8 11-7 8-10 9-13 8-12 5-12 3-8 1h-392v-1l381-1 16-1 15-4 12-5 9-6 7-6h2l2-4 7-7 7-11 6-12 3-10 2-21 1-57z" fill="#A49CA6"/>
<path transform="translate(1765,1397)" d="m0 0h1v9l-3 9-4 9-6 11-6 9h-2v2h-2l-1 5h-2l-5 6-6 4-2 3-7 4-4 1v2l-12 5-10 5-1 1 3 2-16 1h-129v-1l73-1 44-1 8-1 3-2 12-4 7-2 4-2 3-1v-2l8-4 3-3h2l2-4 3-1v-2l8-8h2l1-3 6-3 4-5 3-1 2-5 3-4h2l-1-3 3-5h2l1-4 5-10z" fill="#D6ECFD"/>
<path transform="translate(1767,1401)" d="m0 0h1v9l-2 11-4 11-8 15-11 12-5 5-10 8-14 7-13 4h-12l4-2 5-3 12-6 6-1v-2l7-4 4-2 6-7 5-3 4-4 1-3h2v-2h2l2-4 5-8 7-14 3-10 2-2z" fill="#F8FBFD"/>
<path transform="translate(583,1738)" d="m0 0h179v1l-23 1-147 1-18 2-16 5-11 6-10 8-6 8-5 9-1-3 5-9 9-10 11-8 11-6 14-4z" fill="#A49CA6"/>
<path transform="translate(1322,1738)" d="m0 0h126l16 1 17 4 2 2-7-1-9-2-10-1h-174v-2z" fill="#BFC7D5"/>
<path transform="translate(592,1740)" d="m0 0h45l56 1v1l-74 1-30 1-9 1-16 4-13 5-11 7v-3l14-9 12-5 13-3z" fill="#DAEEFD"/>
<path transform="translate(1565,208)" d="m0 0 2 1-8 4-22 7-19 7-19 9-19 10-7 2h-8l-16-5-24-11-4 1-7 8-10 9-5 5v-3l3-1 2-4 9-8 3-4h2l2-4 5-2 15 7 19 8 3 1h12l10-4 27-14 20-8 30-9z" fill="#A49CA6"/>
<path transform="translate(267,1315)" d="m0 0 1 2-7 16-4 13-3 17v35l4 19 6 17 5 11-1 2-8-15-6-18-3-16-1-9v-19l3-20 7-21z" fill="#A49CA6"/>
<path transform="translate(743,1346)" d="m0 0 21 1v1h-22l1 6v73l-3 9-2-1 1-4 1-83z" fill="#C0C9D8"/>
<path transform="translate(258,1340)" d="m0 0h2v8l-2 4-1 14v35l4 19 1 6h-2l-5-17-2-11v-35l4-20z" fill="#DAEDFD"/>
<path transform="translate(374,1245)" d="m0 0h25l15 2 17 5 12 5 2 2-4 1-5-4-20-6-11-2-20-1-16 1-21 4-12 4-11 5-2-1 14-7 12-4 14-3z" fill="#A49CA6"/>
<path transform="translate(1713,227)" d="m0 0 5 1 32 16 4 1h11l16-6 13-5 7-4 7 1-1 2-4-1-16 7-9 4-14 5h-9l-11-4-10-5-19-10z" fill="#A49CA6"/>
<path transform="translate(579,1741)" d="m0 0 6 1-2 2-5 2-11 2-16 6-11 7v-3l14-9 12-5z" fill="#DEEFFD"/>
<path transform="translate(1394,258)" d="m0 0 1 2v6l9 19 5 14 1 4v7l-3 10-2 1 2-9v-11l-5-13-10-23v-5z" fill="#A49CA6"/>
<path transform="translate(1599,317)" d="m0 0h29l17 3-1 2h-11l-12-2v-1h-18l-1 1-10-1v-1z" fill="#CBD7E5"/>
<path transform="translate(386,1245)" d="m0 0h13l15 2 17 5 12 5 2 2-4 1-5-4-20-6-11-2-19-1z" fill="#A7A1AB"/>
<path transform="translate(824,992)" d="m0 0 5 1v2l5 2 10 15-4-2-10-9-5-4z" fill="#F0F2F5"/>
<path transform="translate(279,1297)" d="m0 0v3l-4 10-7 12h-2l2-9 7-11z" fill="#CAD5E4"/>
<path transform="translate(396,1512)" d="m0 0h9l3 2-20 2-19-1-6-1v-1h33z" fill="#B9BECB"/>
<path transform="translate(1586,584)" d="m0 0 18 1h20l2-1 9 1v1l-8 1h-29l-12-2z" fill="#AAA7B2"/>
<path transform="translate(1766,1410)" d="m0 0h1v8l-4 12-4 8h-2l2-9 5-12z" fill="#D6ECFE"/>
<path transform="translate(754,931)" d="m0 0 5 1 4 5-1 4-5-1-3-2z" fill="#F4F7F9"/>
<path transform="translate(850,1014)" d="m0 0 5 2 2 4h2v2l2 1 2 5-4-2-10-8z" fill="#E9EDF2"/>
<path transform="translate(1686,463)" d="m0 0 4 5-1 5h-2v5l-3-3 1-2-2-1 1-6z" fill="#D7ECFD"/>
<path transform="translate(579,1741)" d="m0 0 6 1-2 2-5 2h-12v-2z" fill="#E1F1FD"/>
<path transform="translate(1729,517)" d="m0 0h3l-2 5-9 13-2-2 3-5z" fill="#C7D3E1"/>
<path transform="translate(1599,317)" d="m0 0h29v1l-25 1-1 1-10-1v-1z" fill="#AEADB9"/>
<path transform="translate(258,1340)" d="m0 0h2v8l-2 4-1 8-2-4 1-10z" fill="#D7ECFD"/>
<path transform="translate(265,1321)" d="m0 0 2 1-1 6-5 11-2-1 3-10z" fill="#DBEEFD"/>
<path transform="translate(261,1427)" d="m0 0 3 1 6 15v2h-2l-7-16z" fill="#DBEEFD"/>
<path transform="translate(563,1745)" d="m0 0 7 1-3 2-8 3-3-1v-2z" fill="#DCEEFD"/>
<path transform="translate(276,1458)" d="m0 0 5 2 5 6-2 4-8-10z" fill="#C8D1DE"/>
<path transform="translate(269,1446)" d="m0 0 4 2 4 8-2 2-6-9z" fill="#C9D1DE"/>
<path transform="translate(257,1410)" d="m0 0 2 2 3 11v3h-2l-4-13z" fill="#D8ECFD"/>
<path transform="translate(448,1422)" d="m0 0 2 2-7 8-3 1 1-5 3-1 1-2h2z" fill="#D6ECFE"/>
<path transform="translate(1493,1750)" d="m0 0 5 2 9 7-3 1-9-7-2-1z" fill="#C3CEDD"/>
<path transform="translate(1701,552)" d="m0 0 2 2-8 7-4 2 1-4 8-6z" fill="#C2CCDA"/>
<path transform="translate(396,1512)" d="m0 0h9l3 2-6 1h-12v-1l6-1z" fill="#B6BAC7"/>
<path transform="translate(352,1250)" d="m0 0 4 2-11 3h-3v-2z" fill="#E0F0FD"/>
<path transform="translate(406,1248)" d="m0 0 10 1 4 2-5 1-10-2z" fill="#DDEFFD"/>
<path transform="translate(255,1356)" d="m0 0h1l1 8h-2v8h-1l-1-9z" fill="#E6F3FD"/>
<path transform="translate(1713,361)" d="m0 0 7 6 3 4-1 2-9-9z" fill="#BABFCD"/>
</svg>
