<?xml version="1.0" encoding="UTF-8"?>
<svg version="1.1" viewBox="0 0 900 900" width="225" height="225" xmlns="http://www.w3.org/2000/svg">
<path transform="translate(349)" d="m0 0h44l70 4 44 5 43 7 32 7 33 9 28 10 21 9 22 12 14 10 11 9 12 12 9 13 5 11 3 10 1 231-3 1-12-3-16-2-15-1-1-145-17 10-21 11-23 9-27 9-44 11-43 8-38 5-31 3-35 2-33 1h-29l-50-2-36-3-40-5-35-6-40-9-31-9-25-9-20-9-19-10-12-7 1 2 1 148 5 10 10 10 15 10 21 11 26 10 24 8 40 10 32 6 36 5 30 3 51 3h67l39-2 12-1-2 4-6 6h-2l-2 4-5 4-11 14-8 14-1 2-3 1h-81l-50-3-39-4-46-7-37-8-30-8-33-11-18-8-16-8-14-8-4-2v138l3 8 9 10 10 8 17 10 17 8 26 10 31 9 34 8 34 6 38 5 36 3 57 3 1 1v44l-4 1-46-2-40-3-41-5-36-6-40-9-28-8-21-7-21-9-16-8-16-9-5-3 1 139 3 8 9 10 10 8 14 8 16 8 25 10 24 8 26 7 34 7 38 6 39 4 52 3 30 1h16l34-1 9 12 12 13 17 17v1l-48 4h-67l-58-4-46-5-34-5-42-9-30-8-27-9-29-13-22-12-17-12-11-9-11-11-8-12-5-12v-649l6-18 6-11 9-11 13-13 17-12 18-10 23-11 30-11 24-7 29-7 37-7 44-6 38-3zm-2 45-55 3-40 4-40 6-30 6-39 10-32 11-19 8-21 12-9 7-9 8-6 10-1 4v10l6 12 6 7 12 9 18 10 17 8 27 10 31 9 36 8 35 6 31 4 52 4 25 1h47l35-1 51-4 38-5 28-5 36-8 25-7 28-10 20-9 18-10 11-8 10-10 4-7 2-6v-7l-6-12-8-9-14-10-16-9-20-9-25-9-27-8-30-7-39-7-40-5-36-3-39-2z" fill="#030303"/>
<path transform="translate(651,444)" d="m0 0h58l7 4 7 8 2 8v39l10 2 16 7 13 7 4 1 23-23 8-5 4-1h7l9 4 5 4 6 7 26 26 4 8v11l-5 9-26 26 1 5 5 10 7 20 3 9h34l9 2 7 6 5 8v57l-5 9-5 4-7 3-7 1h-36l-1 7-6 15-10 19 6 7 19 19 4 7v13l-4 7-9 10-25 25-6 4-7 2-10-1-9-6-22-22-1-2-7 1-19 8-19 6-1 38-3 8-8 7-7 2h-52l-9-3-6-5-4-8-1-41-8-4-15-6-17-9h-3l-7 8-16 16-9 4-7 1-10-3-10-9-27-27-6-11v-8l5-10 26-26-1-6-8-20-5-16v-3h-37l-11-4-5-5-3-8v-55l3-8 9-8 4-1 42-1 8-21 9-17 2-3-11-11v-2l-4-2-7-7-7-11-1-3v-9l5-9 35-35 10-5h8l7 3 10 8 15 15v2h2l4 4 17-8 18-6 7-2 1-35 2-8 3-5 8-6zm11 135-17 4-12 5-11 7-10 8-10 11-8 13-6 14-3 12-1 7v20l4 18 6 13 7 12 7 8 8 7 9 7 11 6 12 5 13 3h26l19-5 16-8 12-9 11-11 9-14 6-13 4-18v-25l-4-17-8-17-8-11-8-9-12-9-16-8-15-5-6-1z" fill="#020202"/>
</svg>
