<?xml version="1.0" encoding="UTF-8"?>
<svg version="1.1" viewBox="0 0 2000 2000" width="500" height="500" xmlns="http://www.w3.org/2000/svg">
<path transform="translate(981,90)" d="m0 0h24l29 2 21 2 36 6 40 10 30 10 27 11 29 14 22 12 19 12 20 14 13 10 11 9 14 12 16 15 12 12 7 8 9 10 11 14 13 17 10 15 12 19 13 23 13 27 11 27 11 33 8 31 5 26 3 21 3 34v46l-3 35-5 32-8 34-9 30-10 27-12 27-10 20-13 22-45 75-13 22-12 20-17 28-17 29-17 28-17 29-27 45-13 22-9 15-14 23-13 22-9 15-10 17-6 11h603l4 13 11 42 17 62 15 55 10 37 13 47 12 44 16 57 17 63 13 47 14 51 18 67 6 22-1 7-4 5-9 3h-104l-75-1h-1512l-141 1-11-1-6-4-2-3v-11l8-30 11-41 16-58 9-34 10-36 12-45 13-48 16-59 10-38 10-37 11-41 14-52 15-56 7-27 2-2h506l86 1-10-19-15-25-17-28-10-17-9-15-19-32-15-25-38-64-17-28-17-29-10-16-10-17-27-45-10-17-17-28-13-23-12-24-11-27-9-25-8-28-7-33-5-35-2-21v-67l4-34 7-37 7-27 10-30 12-29 14-29 14-25 13-20 13-18 10-13 11-13 9-10 7-8 20-20 8-7 11-10 26-20 19-13 21-13 18-10 16-8 19-9 31-12 18-6 35-9 31-6 20-3 23-2zm-1 296-22 3-21 5-19 7-19 10-15 10-16 13-12 11-11 14-7 9-10 16-8 16-6 15-6 24-2 16-1 13v16l2 24 6 26 9 22 9 17 9 13 10 13 23 23 18 13 17 10 21 9 15 5 18 4 18 2h26l20-2 21-5 20-7 19-9 16-10 18-14 17-17 13-17 9-14 8-16 7-18 6-21 3-19v-41l-5-27-6-19-9-21-9-15-10-14-12-14-8-8-8-7-13-10-18-11-16-8-15-6-24-6-11-2-11-1z" fill="#DDD3B9"/>
<path transform="translate(981,90)" d="m0 0h24l29 2 21 2 36 6 40 10 30 10 27 11 29 14 22 12 19 12 20 14 13 10 11 9 14 12 16 15 12 12 7 8 9 10 11 14 13 17 10 15 12 19 13 23 13 27 11 27 11 33 8 31 5 26 3 21 3 34v46l-3 35-5 32-8 34-9 30-10 27-12 27-10 20-13 22-45 75-13 22-12 20-17 28-17 29-17 28-17 29-27 45-13 22-9 15-14 23-13 22-9 15-10 17-6 11h603l4 13 11 42 17 62 15 55 10 37 13 47 12 44 16 57 17 63 13 47 14 51 18 67 6 22-1 7-4 5-9 3h-104l-75-1h-1512l-141 1-11-1-6-4-2-3v-11l8-30 11-41 16-58 9-34 10-36 12-45 13-48 16-59 10-38 10-37 11-41 14-52 15-56 7-27 2-2h506l86 1-10-19-15-25-17-28-10-17-9-15-19-32-15-25-38-64-17-28-17-29-10-16-10-17-27-45-10-17-17-28-13-23-12-24-11-27-9-25-8-28-7-33-5-35-2-21v-67l4-34 7-37 7-27 10-30 12-29 14-29 14-25 13-20 13-18 10-13 11-13 9-10 7-8 20-20 8-7 11-10 26-20 19-13 21-13 18-10 16-8 19-9 31-12 18-6 35-9 31-6 20-3 23-2zm-1 296-22 3-21 5-19 7-19 10-15 10-16 13-12 11-11 14-7 9-10 16-8 16-6 15-6 24-2 16-1 13v16l2 24 6 26 9 22 9 17 9 13 10 13 23 23 18 13 17 10 21 9 15 5 18 4 18 2h26l20-2 21-5 20-7 19-9 16-10 18-14 17-17 13-17 9-14 8-16 7-18 6-21 3-19v-41l-5-27-6-19-9-21-9-15-10-14-12-14-8-8-8-7-13-10-18-11-16-8-15-6-24-6-11-2-11-1zm372 857-201 1-4 4-9 15-13 22-24 40-13 21-8 14-9 15-19 32-24 40-13 22-15 25-4 7-4-1-11-19-13-22-14-23-10-17-17-28-17-29-8-13-9-15-17-29-17-28-11-19-7-11-3-3h-587l-6 18-15 55-17 63-21 78-11 42-8 28-7 27-12 45-13 49-15 55-11 42-13 48-5 17v6l160 1 1258 1 388-2-1-10-7-24-19-70-8-30-13-48-19-70-7-23-10-38-9-32-10-38-7-25-9-34-10-35-10-38-10-36-5-19-4-3-168-1z" fill="#E22B29"/>
<path transform="translate(1352,1243)" d="m0 0h225l168 1 4 3 11 41 13 47 7 25 13 49 7 25 15 56 10 36 7 26 4 13-1 4-4-12-806 7-479 4h-120l1-8 12-55 10-43 19-85 15-70 10-48 4-15h341l5 6 9 15 17 29 17 28 11 19 17 28 13 22 24 40 13 22 11 18 13 22 5 8h3l12-21 14-23 10-17 18-30 19-32 9-15 10-17 14-23 27-45 10-17 8-13 4-4z" fill="#DDD3B9"/>
<path transform="translate(981,90)" d="m0 0h24l29 2 21 2 36 6 40 10 30 10 27 11 29 14 22 12 19 12 20 14 13 10 11 9 14 12 16 15 12 12 7 8 9 10 11 14 13 17 10 15 12 19 13 23 13 27 11 27 11 33 8 31 5 26 3 21 3 34v46l-3 35-5 32-8 34-9 30-10 27-12 27-10 20-13 22-45 75-13 22-12 20-17 28-17 29-17 28-17 29-27 45-13 22-9 15-14 23-13 22-9 15-10 17-6 11h603l4 13 11 42 17 62 15 55 10 37 13 47 12 44 16 57 17 63 13 47 14 51 18 67 6 22-1 7-4 5-9 3h-104l-75-1h-1512l-141 1-11-1-6-4-2-3v-11l8-30 11-41 16-58 9-34 10-36 12-45 13-48 16-59 10-38 10-37 11-41 14-52 15-56 7-27 2-2h506l86 1-10-19-15-25-17-28-10-17-9-15-19-32-15-25-38-64-17-28-17-29-10-16-10-17-27-45-10-17-17-28-13-23-12-24-11-27-9-25-8-28-7-33-5-35-2-21v-67l4-34 7-37 7-27 10-30 12-29 14-29 14-25 13-20 13-18 10-13 11-13 9-10 7-8 20-20 8-7 11-10 26-20 19-13 21-13 18-10 16-8 19-9 31-12 18-6 35-9 31-6 20-3 23-2zm-10 27-40 4-30 5-29 7-20 6-20 7-15 6-24 11-28 15-22 14-17 12-18 14-10 9-11 9-11 11-2 1v2h-2v2h-2l-7 8-8 8-9 11-11 13-14 19-10 15-14 24-13 25-9 21-9 24-9 28-8 36-4 26-3 29-1 19v19l2 29 3 28 4 24 6 26 8 27 8 23 13 30 13 25 13 22 36 60 35 59 10 16 17 29 24 40 10 17 42 70 10 17 69 115 10 17 21 35 13 22 9 15 10 17 27 45 10 16 16 28 12 19h4l10-16 13-22 24-40 13-22 15-25 17-28 16-27 8-13 17-29 48-80 13-22 8-13 7-11 6-11 8-13 10-17 9-15 15-26 13-21 21-35 10-17 13-22 21-35 17-28 29-49 14-23 15-30 12-29 10-30 7-26 7-36 3-23 2-26v-38l-3-36-6-36-7-30-9-29-10-26-9-20-13-25-14-23-11-16-12-16-8-10-12-14-12-13-20-20-8-7-14-12-13-10-18-13-19-12-23-13-16-8-19-9-27-10-25-8-24-6-32-6-23-3-22-2zm381 1126-201 1-4 4-9 15-13 22-24 40-13 21-8 14-9 15-19 32-24 40-13 22-15 25-4 7-4-1-11-19-13-22-14-23-10-17-17-28-17-29-8-13-9-15-17-29-17-28-11-19-7-11-3-3h-587l-6 18-15 55-17 63-21 78-11 42-8 28-7 27-12 45-13 49-15 55-11 42-13 48-5 17v6l160 1 1258 1 388-2-1-10-7-24-19-70-8-30-13-48-19-70-7-23-10-38-9-32-10-38-7-25-9-34-10-35-10-38-10-36-5-19-4-3-168-1z" fill="#292422"/>
<path transform="translate(475,1244)" d="m0 0h22l-1 7-6 27-16 76-21 95-12 53-8 35-7 31 336-3 422-4 480-4 167-1 3 6 1 7h2l2 7 3 16 11 41 6 21v4l-505 1-961 1-112-2-2-1 1-9 8-29 9-32 24-86 8-28 14-51 9-32 7-26 12-43 7-24 10-38 4-12 3-2z" fill="#FDFDFD"/>
<path transform="translate(1352,1243)" d="m0 0h225l168 1 4 3 11 41 13 47 7 25 13 49 7 25 15 56 10 36 7 26 4 13-1 4-4-12-167 1h-182l-1-6-5-114-7-155-1-39-118 1-4 101-4 73-2 45-1 14-3 1-20-3-38-4-18-3-13-4-11-7-14-14-6-7-16-12-13-8-16-8-15-6-15-5-13-5-8-4v-2l-4-2-6-5-5-13-4-26v-2l-5 2-4 1-2 4v-3l39-65 10-17 8-13 4-4z" fill="#B4D398"/>
<path transform="translate(981,90)" d="m0 0h24l29 2 21 2 36 6 40 10 30 10 27 11 29 14 22 12 19 12 20 14 13 10 11 9 14 12 16 15 12 12 7 8 9 10 11 14 13 17 10 15 12 19 13 23 13 27 11 27 11 33 8 31 5 26 3 21 3 34v46l-3 35-5 32-8 34-9 30-10 27-12 27-10 20-13 22-45 75-13 22-12 20-17 28-17 29-17 28-17 29-27 45-13 22-9 15-14 23-13 22-9 15-10 17-6 10-2 5-9 15-6 7-12 21-7 11-10 18-3 7-13 22-13 21-8 14-9 15-19 32-24 40-13 22-15 25-5 8-4-1-12-20-13-22-14-23-10-17-17-28-17-29-8-13-9-15-17-29-17-28-11-19-5-8-3-7-7-10-5-9-8-14-14-24-12-20-17-28-13-22-19-32-15-25-38-64-17-28-17-29-10-16-10-17-27-45-10-17-17-28-13-23-12-24-11-27-9-25-8-28-7-33-5-35-2-21v-67l4-34 7-37 7-27 10-30 12-29 14-29 14-25 13-20 13-18 10-13 11-13 9-10 7-8 20-20 8-7 11-10 26-20 19-13 21-13 18-10 16-8 19-9 31-12 18-6 35-9 31-6 20-3 23-2zm-10 27-40 4-30 5-29 7-20 6-20 7-15 6-24 11-28 15-22 14-17 12-18 14-10 9-11 9-11 11-2 1v2h-2v2h-2l-7 8-8 8-9 11-11 13-14 19-10 15-14 24-13 25-9 21-9 24-9 28-8 36-4 26-3 29-1 19v19l2 29 3 28 4 24 6 26 8 27 8 23 13 30 13 25 13 22 36 60 35 59 10 16 17 29 24 40 10 17 42 70 10 17 69 115 10 17 21 35 13 22 9 15 10 17 27 45 10 16 16 28 12 19h4l10-16 13-22 24-40 13-22 15-25 17-28 16-27 8-13 17-29 48-80 13-22 8-13 7-11 6-11 8-13 10-17 9-15 15-26 13-21 21-35 10-17 13-22 21-35 17-28 29-49 14-23 15-30 12-29 10-30 7-26 7-36 3-23 2-26v-38l-3-36-6-36-7-30-9-29-10-26-9-20-13-25-14-23-11-16-12-16-8-10-12-14-12-13-20-20-8-7-14-12-13-10-18-13-19-12-23-13-16-8-19-9-27-10-25-8-24-6-32-6-23-3-22-2z" fill="#050404"/>
<path transform="translate(1521,1659)" d="m0 0h339l2 2 8 30 30 110 2 6v8l-4 1h-162l-58 1h-92v-1l86-1 6-1-1-5-2-3-4-2-1-2-5-3-11-11-7-9-6-10-8-11-3-2v-2l-4-2-17-9-16-7-24-10-16-9-12-11-6-8-8-16-8-18v-4z" fill="#B4D398"/>
<path transform="translate(1369,1244)" d="m0 0h99l1 2 2 61 6 131 5 114v5l-1 1-50 1h-95l3-95 3-66 3-52 4-98 1-3z" fill="#FEFD9F"/>
<path transform="translate(983,360)" d="m0 0h18l26 3 28 6 20 7 25 12 19 12 20 16 18 18 13 17 12 19 9 19 5 12 6 18 5 22 3 28v17l-2 18-5 24-6 20-10 24-11 19-11 16-8 10-15 16-11 9-13 10-16 10-15 8-19 8-26 8-14 3-18 2h-33l-22-3-17-4-24-8-14-6-20-11-12-8-10-8-13-11-14-14-14-19-11-18-13-27-7-22-4-18-3-21v-31l2-19 6-26 8-24 10-21 14-22 10-13 12-13 14-13 13-10 12-8 10-6 16-8 14-6 16-5 18-4 18-3zm-3 26-22 3-21 5-19 7-19 10-15 10-16 13-12 11-11 14-7 9-10 16-8 16-6 15-6 24-2 16-1 13v16l2 24 6 26 9 22 9 17 9 13 10 13 23 23 18 13 17 10 21 9 15 5 18 4 18 2h26l20-2 21-5 20-7 19-9 16-10 18-14 17-17 13-17 9-14 8-16 7-18 6-21 3-19v-41l-5-27-6-19-9-21-9-15-10-14-12-14-8-8-8-7-13-10-18-11-16-8-15-6-24-6-11-2-11-1z" fill="#050404"/>
<path transform="translate(1357,1659)" d="m0 0h111l17 1 1 1 5 114 1 28v14l-49 1h-72l-47-1v-15l2-39 3-91 1-11 1-1z" fill="#FEFD9F"/>
<path transform="translate(232,1219)" d="m0 0h68l399 1v1h-403l-50-1-1 3 3 1 87 2v2l-21 1-76 1v3h-2l-2 12-11 42-3 10-1 4-1 9-9 35-15 55-13 48-11 41-7 25-11 41-7 25-8 30-5 17-9 35-5 17-5 19-2 5-3 10-2 1 1-9 3-12 4-15 6-24 6-21 8-32 12-44 6-25 6-20 6-25 5-18 18-68 8-30 5-18 12-45 7-25h2l2-9 7-27 2-9 2-7 2-6 2-1-2-3z" fill="#423F3B"/>
<path transform="translate(402,1240)" d="m0 0h23l19 1v2h393v1h-586l-3 12-11 39-17 63-11 40-10 38-8 30-16 59-20 75-13 49-15 55-11 42-13 48-5 17-1 6h-1v-8l5-19 6-25 6-23 5-16 3-17h2l1-12h2l1-7 2-9 10-35 2-12 2-4 5-22 4-13 5-18 2-6 3-14 5-20 5-17 3-9 6-26 1-4 6-23 9-30 4-18 4-15 6-21 5-17 5-19 3-12 3-11 6-20 5-15 6-27 1-5 6-6 13-1 122 1z" fill="#6D3A36"/>
<path transform="translate(1531,1242)" d="m0 0h158l59 1 3 4 6 22 6 23 7 22 4 16 9 35 6 19 4 13 6 27 9 32 5 18 3 12 7 27 5 17 4 14 6 17 5 21 3 3v7l1 4 2 1v2l3 1v2l4 8 4 13 2 10 1 8-1 11 3 14 5 17 5 19 4 17 12 43 2 4 3 14 2 9v5l-2-4-21-77-8-30-13-48-19-70-7-23-10-38-9-32-10-38-7-25-9-34-10-35-10-38-10-36-5-19-3-2-168-1-46-1z" fill="#643B37"/>
<path transform="translate(1352,1243)" d="m0 0h225l168 1 4 3 11 41 13 47 7 25 13 49 7 25 15 56 2 7-1 4-11-38-9-35-9-30-12-47-8-27-11-42-10-35-18-1h-53l-206-2-1 2v-2l-99 1-27 1-192 1-3 3 2-5 2-1z" fill="#DDD3B9"/>
<path transform="translate(402,1240)" d="m0 0h23l19 1v2h393v1h-586l-3 12-11 39-16 59-2-3 1-10 4-15 3-11 6-20 5-15 6-27 1-5 6-6 13-1 122 1z" fill="#AF312F"/>
<path transform="translate(1419,724)" d="m0 0 1 4-10 25-8 18-8 16-11 18-13 22-9 15-12 19-6 11-9 14-6 11-8 13-14 24-8 13-8 14-8 13-9 15-12 19-15 26-9 15-8 13-10 18-6 9-5 9-10 15-1-2 7-11 6-11 8-13 10-17 9-15 15-26 13-21 21-35 10-17 13-22 21-35 17-28 29-49 14-23 15-30 12-29z" fill="#232220"/>
<path transform="translate(1829,1541)" d="m0 0 3 3 6 17 5 21 3 3v7l1 4 2 1v2l3 1v2l4 8 4 13 2 10 1 8-1 11 3 14 5 17 5 19 4 17 12 43 2 4 3 14 2 9v5l-2-4-21-77-8-30-13-48-19-70-6-19z" fill="#4D3E3A"/>
<path transform="translate(232,1219)" d="m0 0h68l399 1v1h-403l-50-1-1 3 3 1 87 2v2l-21 1-76 1-1 3v-4l2-1 46-1h-48l-2 1 1-3 2-1-2-3z" fill="#42403C"/>
<path transform="translate(1811,1413)" d="m0 0 2 3 4 11 9 32 3 12 1 7 3 7 8 31 9 32 7 25 8 30 11 42 5 20 5 18 10 37 6 22v5l-2-3-18-66-25-95-18-62-6-22-2-7-6-22-2-7-4-17-2-5-2-9-4-15z" fill="#42403C"/>
<path transform="translate(749,1224)" d="m0 0h36l42 1 2 1v3l-2 1-138-1-9-1 4-2z" fill="#443F3B"/>
<path transform="translate(87,1780)" d="m0 0 2 1-1 10-8 32v7l11 1 61 2 2 2-1 1-51 1-26-1-4-5 3-9 5-19z" fill="#42403C"/>
<path transform="translate(1179,1241)" d="m0 0h179l78 1v1l-84 1-202 1v-2l15-1z" fill="#433F3B"/>
<path transform="translate(1531,1242)" d="m0 0h158l59 1 3 4 6 22 6 23 3 10-1 4-2-4-10-36-5-19-3-2-168-1-46-1z" fill="#6B3A37"/>
<path transform="translate(1831,1552)" d="m0 0 2 3 3 10-1 4-4-12-167 1h-123v-1l79-1 165-1h46z" fill="#DED3BA"/>
<path transform="translate(1752,1266)" d="m0 0h2l18 66 12 43 11 42 10 35 10 38 2 7-1 4-11-38-9-35-9-30-12-47-8-27-11-42z" fill="#DED3BA"/>
<path transform="translate(176,1511)" d="m0 0h1v7l-16 60-8 29-4 15-1-4v-10l4-13 5-18 2-6 3-14 5-20 5-17z" fill="#6E3A36"/>
<path transform="translate(237,1226)" d="m0 0h48l1 2-49 1-1 7-4 17-11 42-2 6-4 14-4 13-2 1 2-10 5-21 5-18 5-17 6-25 2-7z" fill="#E12E2B"/>
<path transform="translate(1912,1831)" d="m0 0h12l-1 3-2 1h-110l-1-2z" fill="#42403C"/>
<path transform="translate(236,1302)" d="m0 0h1l-1 10-8 31-6 19-6 27-8 27-6 21-5 22-4 15-3 9h-1l1-9 6-22 6-24 11-39 6-22 7-28 6-21z" fill="#B4D398"/>
<path transform="translate(125,1704)" d="m0 0h1l-1 8-22 82-5 17-1 6h-1v-8l5-19 6-25 6-23 5-16 3-17h2z" fill="#733936"/>
<path transform="translate(219,1351)" d="m0 0h1v7l-11 40-7 27h-1l-1-10 4-16 6-22 5-15 2-9z" fill="#733936"/>
<path transform="translate(1860,1652)" d="m0 0h2l3 14 5 17 5 19 4 17 12 43 2 4 3 14 2 9v5l-2-4-21-77-8-30-7-26z" fill="#623B38"/>
<path transform="translate(402,1240)" d="m0 0h23l19 1v2h72v1h-85l-45-1v-1z" fill="#463F3B"/>
<path transform="translate(1763,1236)" d="m0 0 2 2 2 7v4h2l5 24 8 27 6 24 6 20 1 10-2-3-11-40-8-30-5-17-6-24z" fill="#E14741"/>
<path transform="translate(285,1225)" d="m0 0 50 1v2l-21 1-76 1-1 3v-4l2-1 46-1z" fill="#42403C"/>
<path transform="translate(1160,1225)" d="m0 0h23l51 1v1l-5 1h-68z" fill="#413F3B"/>
<path transform="translate(232,1219)" d="m0 0h68v1h-54l-1 3 3 1 37 1v1l-48 1-2 1 1-3 2-1-2-3z" fill="#695750"/>
<path transform="translate(1902,1747)" d="m0 0 2 3 8 29 5 18 5 17 2 9v6l-2-3-7-24-13-51z" fill="#42403C"/>
<path transform="translate(1811,1413)" d="m0 0 2 3 4 11 9 32 3 12 1 11-2-1-4-17-3-8-6-24-4-15z" fill="#783835"/>
<path transform="translate(160,1574)" d="m0 0 1 4-8 29-4 15-1-4v-10l4-13 5-18z" fill="#763935"/>
<path transform="translate(1196,1113)" d="m0 0 1 3-8 13-12 20-11 19-12 19-4 6-1-2 27-45 13-22z" fill="#232220"/>
<path transform="translate(1809,1468)" d="m0 0h2l5 18 7 27 5 17 2 6v5l-2 1-10-38-9-32z" fill="#6A3A37"/>
<path transform="translate(110,1758)" d="m0 0h1l-1 10-10 37-3 12h-1v-8l5-19 6-25z" fill="#783835"/>
<path transform="translate(1877,1717)" d="m0 0 2 2 12 43 2 4 3 14 2 9v5l-2-4-19-70z" fill="#743935"/>
<path transform="translate(1765,1305)" d="m0 0h2l3 9 9 36-1 3-3-6-10-37z" fill="#663B37"/>
<path transform="translate(251,1242)" d="m0 0h11v1l-10 1-6 18-3 11h-2l-1 2 1-9 3-14 2-6z" fill="#623B38"/>
<path transform="translate(1830,1479)" d="m0 0 2 3 9 34 1 3v7l-2-2-7-25-2-7-2-10z" fill="#593C39"/>
<path transform="translate(1831,1552)" d="m0 0 2 3 3 10-1 4-4-12h-48l2-2h46z" fill="#DBD3B8"/>
<path transform="translate(148,1614)" d="m0 0 1 4-2 12-4 15-3 1-1-2 3-12 4-15z" fill="#653B37"/>
<path transform="translate(1147,1245)" d="m0 0 1 3-9 15-13 22-8 13-1-2 12-22 9-14 8-14z" fill="#432C2A"/>
<path transform="translate(1716,1226)" d="m0 0h45l2 6-1 4-2-6-16-1-7-1-21-1z" fill="#5D534C"/>
<path transform="translate(141,1645)" d="m0 0 1 4-8 29-2-3 2-11 5-17z" fill="#753935"/>
<path transform="translate(1763,1236)" d="m0 0 2 2 2 7v4h2l5 24v5l-2-4-4-15-5-19z" fill="#D38778"/>
<path transform="translate(1799,1431)" d="m0 0h2l7 25 2 6v6l-2-1-9-33z" fill="#6E3A36"/>
<path transform="translate(468,1382)" d="m0 0h1l-1 11-6 24h-1v-9l5-22z" fill="#C4D3A4"/>
<path transform="translate(476,1346)" d="m0 0 1 4-7 31h-1v-9l5-22z" fill="#C6D3A6"/>
<path transform="translate(1889,1758)" d="m0 0 4 8 3 14 2 9v5l-2-4-7-25z" fill="#673B37"/>
<path transform="translate(847,418)" d="m0 0 2 1-7 7-2 3h-2l-2 4-10 11v-3l9-11z" fill="#232220"/>
<path transform="translate(125,1704)" d="m0 0h1l-1 8-3 11-2-3 1-11h2z" fill="#743936"/>
<path transform="translate(148,1614)" d="m0 0 1 4-2 12-2 4-1-10 3-9z" fill="#623B38"/>
<path transform="translate(1822,1516)" d="m0 0h2l4 14 2 6v5l-2 1-6-23z" fill="#623B38"/>
<path transform="translate(1777,1352)" d="m0 0 3 1 6 21v4h-2l-7-24z" fill="#6E3A36"/>
<path transform="translate(1772,1330)" d="m0 0h2l5 20-1 3-3-6-3-12z" fill="#583D39"/>
<path transform="translate(1747,1243)" d="m0 0 4 4 4 15-1 4-2-4-4-15-3-3z" fill="#6E3A36"/>
<path transform="translate(1811,1413)" d="m0 0 2 3 4 11 1 3v9l-2-4-2-5-3-13z" fill="#A03330"/>
<path transform="translate(1147,1245)" d="m0 0 1 3-9 15-5 9-1-4 9-15z" fill="#4E2B29"/>
<path transform="translate(1103,1324)" d="m0 0 1 3-5 9h-2l-2 4-2-2 8-13z" fill="#D8D3B5"/>
<path transform="translate(128,1690)" d="m0 0h1v7l-2 7h-2l-1 2v-9h2v-5z" fill="#623B38"/>
<path transform="translate(120,1720)" d="m0 0h1v7l-3 11-3 2 2-10 2-9z" fill="#633B38"/>
<path transform="translate(1860,1652)" d="m0 0h2l3 14 2 9-2 1-5-19z" fill="#6C3A36"/>
<path transform="translate(1809,1468)" d="m0 0h2l5 18-1 3-3-7-3-10z" fill="#5D3C38"/>
<path transform="translate(1824,1461)" d="m0 0 3 3 2 10 1 8-2-1-4-17z" fill="#803734"/>
<path transform="translate(241,1273)" d="m0 0 1 4-4 14-2-2 2-9z" fill="#7C3835"/>
<path transform="translate(105,1776)" d="m0 0h1v7l-2 8h-2l-1 2 2-12z" fill="#683A37"/>
<path transform="translate(214,1310)" d="m0 0h1l-1 10-4 9-1-3 4-15z" fill="#E22B29"/>
<path transform="translate(843,1253)" d="m0 0h2l3 5 1 5h-5l-2-6z" fill="#BAD39D"/>
<path transform="translate(135,1664)" d="m0 0h2l-1 7-2 7-2-3 2-10z" fill="#7D3834"/>
<path transform="translate(1838,1509)" d="m0 0 2 4 2 6v7l-2-2-3-10z" fill="#503E3A"/>
<path transform="translate(465,1399)" d="m0 0 1 2-4 16h-1v-9l3-8z" fill="#BED3A0"/>
<path transform="translate(236,1289)" d="m0 0h1l-1 10h-2v3h-2l1-8z" fill="#603C38"/>
<path transform="translate(1822,1449)" d="m0 0 2 4 2 6-1 4h-2l-2-9z" fill="#513D3A"/>
<path transform="translate(1769,1319)" d="m0 0h2l2 5v6l-2 2-2-7z" fill="#6B3A37"/>
<path transform="translate(237,1226)" d="m0 0 6 1-4 2h-2l-1 7-2 1 1-9z" fill="#E13C38"/>
<path transform="translate(243,1263)" d="m0 0h1v7l-1 3h-2l-1 2 1-9z" fill="#643B37"/>
<path transform="translate(476,1346)" d="m0 0 1 4-3 12h-1v-8z" fill="#C0D3A2"/>
<path transform="translate(219,1351)" d="m0 0h1v7h-2l-1 4h-1l1-9z" fill="#593C39"/>
<path transform="translate(1889,1758)" d="m0 0 4 8v5l-2 1-2-7z" fill="#603B38"/>
</svg>
