<?xml version="1.0" encoding="UTF-8"?>
<svg version="1.1" viewBox="0 0 2000 2000" width="500" height="500" xmlns="http://www.w3.org/2000/svg">
<path transform="translate(100,63)" d="m0 0h1800l22 3 17 6 16 9 11 9 10 10 10 15 7 14 5 15 2 7v1236l-5 18-8 18-8 12-11 12-10 9-15 9-15 6-17 4-11 1h-753v92l13 1 40 6 40 8 40 10 36 11 34 13 31 15 20 12 17 12 13 11 14 14 12 17 8 16 5 16 1 5v24l-4 16-5 12-8 14-10 13-18 18-13 10-15 10-15 9-19 10-30 13-23 8-21 7-38 10-38 8-41 7-38 5-42 4-53 3h-84l-51-3-51-5-42-6-43-8-29-7-33-9-36-12-24-10-25-12-21-12-17-12-10-8-10-9-10-10-10-13-9-16-5-14-2-7-1-9v-13l3-17 6-15 7-13 10-13 9-10 8-8 17-13 23-15 27-14 23-10 27-10 33-10 44-11 47-9 36-5 4-1v-90l-754-1-16-2-16-5-16-8-13-10-13-13-10-15-8-17-5-19v-1237l7-22 9-17 9-12 13-13 13-9 14-7 17-5zm-3 55v1h62v-1zm167 0v1h33v-1zm230 0v1h230v-1zm1368 0v1h15v-1zm16 0m3 0m4 0m-1795 1 4 1zm1817 0m-1821 1m-3 1m-2 1m1842 4m7 7m1 1m1 1m2 3m1 1m-1383 89m298 0m3 1m2 1m2 1m3 1m1 1m1 1m2 1m1 1m1 1m4 4m1 1m1 1m1 1m1 1 1 2zm1 2m1 1 1 2zm1 2m1 2m-353 6 1 2zm355 0m1 4m-57 16-2 2 4 1v-3zm-247 1v1h7v-1zm240 0m460 27m3 2m1 1m1 1m2 1m1 1m1 1m1 1m1 1 1 2zm1 2m1 1m1 1m1 1 1 2zm1 2m1 2m-468 2 1 3zm471 4 1 2zm-470 3 1 2zm471 0 1 2zm-470 4m1 2m1 2m1 1m1 2m1 1m1 1m1 1m1 1m1 1m5 3m2 1v1h5v-1zm-109 54m-5 1m3 0m-9 2m742 14m2 3m6 14 1 2zm-55 21m-894 489m173 0m-119 2 1 2zm-54 1v5h1v-5zm172 0m-117 1 1 4zm116 2m-1 2m-169 1 1 3zm55 0m1 2 1 2zm2 4 1 2zm1 2m-57 2 1 2zm58 0m104 0m-103 2m1 1m-59 1 1 2zm60 0 1 2zm98 0m-97 2m-60 1 1 2zm61 0m94 0m-93 1m92 0m-91 1 1 3v-3zm90 0m-152 1m151 0m-1 1m-149 1 1 2zm63 0m85 0m-83 1m82 0m-146 1 1 2zm65 0m80 0m-79 1m78 0m-77 1m76 0m-142 1m67 0m2 1m-68 1m69 0m-68 1 1 2zm70 0m64 0m-63 1m-70 1 1 2zm72 0m2 1m-73 1 1 2zm75 0m2 1m-76 1 1 2zm78 0m3 1m35 0m-115 1m83 0m29 0m-111 2m1 1m1 2m1 1 1 2zm1 2m1 1m1 1m1 1 1 2zm1 2m1 1m3 4m1 1m1 1m1 1m1 1m1 1m1 1m1 1m1 1m1 1m1 1m4 3m1 1m1 1m2 1m1 1m1 1m2 1m1 1m2 1m2 1m1 1m2 1m2 1m2 1m2 1m2 1m2 1m3 1m5 2m2 1m11 3v1h10v-1zm-558 109v1h9v-1zm10 0v1h1878v-1zm1873 55 4 1zm-1883 1m1504 68m3 0v1h6v-1zm-8 1v1h5v-1zm18 0 4 1zm117 0 4 1zm17 0v1h5v-1zm118 0 4 1zm18 0v1h5v-1zm-290 1m24 0m110 0m25 0m111 0m25 0m-297 1m29 0m105 0m30 0m106 0m31 0m-303 1m33 0m101 0m34 0m102 0m34 0m-269 1m98 0m37 0m136 0m-309 1m39 0m136 0m136 0m-312 1m41 0m93 0m43 0m136 0m-314 1m134 0m45 0m91 0m45 0m-316 1m134 0m47 0m89 0m47 0m-318 1m48 0m86 0m49 0m87 0m49 0m-320 1m134 0m51 0m85 0m51 0m-322 1m187 0m83 0m53 0m-324 1m189 0m81 0m55 0m-191 1m-135 1m192 0 1 2zm78 0m57 0m-271 1m1 1m136 0m135 0m-330 1 1 2zm60 1m136 0m135 0m-332 1 1 2zm62 1m136 0m135 0 1 2zm-334 2m335 0 1 3zm-271 1 1 2zm-65 2 1 4zm66 1v13h1v-13zm137 2v6h2l-1-6zm66 0 1 2zm-270 3v6h1v-6zm269 0 1 4zm-65 6 1 2zm-203 1v5h1v-5zm269 0 1 2zm-204 3 1 2zm137 0m68 1m66 0 1 2zm-335 1 1 2zm134 0m136 1m-207 1m72 0m-134 1 1 2zm270 0m63 0m-198 1m-134 1m270 0m-75 1m135 0m-329 1m135 0m-134 1m270 0m57 0m-272 1m271 0m-190 1m54 0m135 0m-323 1m135 0m-134 1m135 0m-134 1m48 0m87 0m-88 1m89 0m-134 1m44 0m91 0m179 0m-313 1m42 0m93 0m42 0m135 0m-311 1m175 0m96 0m39 0m-173 1m135 0m-134 1m34 0m102 0m-134 1m30 0m105 0m-269 1m136 0m135 0m-131 2m-129 1m7 0m125 0 4 2h2v-2zm136 0 4 2 2-1-1-1zm-1775 25m0 2 1 4zm1886 3m-1885 3 1 3zm1 5 1 2zm1 2 1 2zm1 2m1 2m1 1 1 2zm1 2m1 1m2 3m2 2m1 1m1 1m5 4m3 2m13 5v1h5v-1zm1055 202m0 3m19 0m6 1m5 1 4 1zm7 1m5 1m-384 1m-5 1m400 0m-405 1m-4 1m-6 1m-5 1m440 0m-445 1m454 1m-463 1m-4 1m475 0m-479 1m484 0m-487 1m491 0m-496 1m-3 1m506 0m-510 1m515 0m3 1m-526 1m534 1m3 1m3 1m-553 1m-3 1m427 1v101h1v-101zm142 1m-578 1m-3 1m590 1m8 3m-618 3m-10 4m-2 1m650 0m-659 4m668 0m-675 3m684 1m6 3m2 1m2 1m2 1m2 1m-715 1m716 0m2 1m2 1m2 1m-729 1m731 0m3 2m2 1m3 2m3 2m2 1m1 1m3 2m-768 2m772 1m-776 2m779 0m1 1m1 1m1 1m1 1m1 1m-792 2m-1 1m796 0m-797 1m798 0m1 1 2 2v-2zm-802 2m804 0m1 1m1 1m1 1m1 1m1 1 1 2zm-498 1m172 0v1h12v-1zm327 1m1 1m2 4m2 3m3 8m1 1 1 3zm-833 1m0 15v5h1v-5zm270 0 1 3zm563 0 1 3zm-272 1 1 3zm-290 3m561 1m-560 1m1 1m1 1m1 1m1 1m1 1v2l2-1zm-273 2m276 1m-275 1m276 0m3 2m-277 1m284 2v1h5v-1zm238 0v1h13v-1zm-231 1m3 0v1h195v-1zm-291 1m1 2m810 0m-809 1m1 1m1 1m1 1m1 1m1 1m1 1m1 1m1 1m1 1 1 2 2-1zm790 0m-1 1m-786 1m785 0m-784 1m1 1m2 1m1 1m1 1m2 1m1 1 1 2 2-1zm3 2m2 1m1 1m2 1m1 1m2 1m1 1m2 1m2 1m2 1m1 1m2 1m2 1m1 1m2 1m2 1m2 1m2 1m2 1m2 1m3 1m2 1m2 1m2 1m2 1m3 1m664 1m-660 1m3 1m3 1m4 2m3 1m3 1m5 2m11 4m3 1m3 1m3 1m3 1m3 1m3 1m4 1m3 1m7 2m3 1m3 1m8 2m4 1m4 1m8 2m4 1m463 0m-459 1m455 0m-450 1m445 0m-441 1 4 1zm6 1m425 0m-421 1m417 0m-411 1m4 1 4 1zm6 1m385 0m-380 1 4 1zm8 1m4 1m7 1m336 0m-329 1m13 2m8 1m279 0 4 1zm-6 1m-31 3v1h6v-1zm-195 1m184 0v1h6v-1zm-36 2m4 0m-87 1v1h52v-1z" fill="#5BADEC"/>
<path transform="translate(100,63)" d="m0 0h1800l22 3 17 6 16 9 11 9 10 10 10 15 7 14 5 15 2 7v1236l-5 18-8 18-8 12-11 12-10 9-15 9-15 6-17 4-11 1h-753v92l13 1 40 6 40 8 40 10 36 11 34 13 31 15 20 12 17 12 13 11 14 14 12 17 8 16 5 16 1 5v24l-4 16-5 12-8 14-10 13-18 18-13 10-15 10-15 9-19 10-30 13-23 8-21 7-38 10-38 8-41 7-38 5-42 4-53 3h-84l-51-3-51-5-42-6-43-8-29-7-33-9-36-12-24-10-25-12-21-12-17-12-10-8-10-9-10-10-10-13-9-16-5-14-2-7-1-9v-13l3-17 6-15 7-13 10-13 9-10 8-8 17-13 23-15 27-14 23-10 27-10 33-10 44-11 47-9 36-5 4-1v-90l-754-1-16-2-16-5-16-8-13-10-13-13-10-15-8-17-5-19v-1237l7-22 9-17 9-12 13-13 13-9 14-7 17-5zm98 52-101 1-12 3-12 7-10 10-6 10-2 6-1 9v985l1 18 1 1h696l1193-1 1-1e3 -1-11-7-14-8-9-14-9-8-3-7-1-165-1zm1741 1101 4 1zm-1883 1m1504 68m3 0v1h6v-1zm-8 1v1h5v-1zm18 0 4 1zm117 0 4 1zm17 0v1h5v-1zm118 0 4 1zm18 0v1h5v-1zm-290 1m24 0m110 0m25 0m111 0m25 0m-297 1m29 0m105 0m30 0m106 0m31 0m-303 1m33 0m101 0m34 0m102 0m34 0m-269 1m98 0m37 0m136 0m-309 1m39 0m136 0m136 0m-312 1m41 0m93 0m43 0m136 0m-314 1m134 0m45 0m91 0m45 0m-316 1m134 0m47 0m89 0m47 0m-318 1m48 0m86 0m49 0m87 0m49 0m-320 1m134 0m51 0m85 0m51 0m-322 1m187 0m83 0m53 0m-324 1m189 0m81 0m55 0m-191 1m-135 1m192 0 1 2zm78 0m57 0m-271 1m1 1m136 0m135 0m-330 1 1 2zm60 1m136 0m135 0m-332 1 1 2zm62 1m136 0m135 0 1 2zm-334 2m335 0 1 3zm-271 1 1 2zm-65 2 1 4zm66 1v13h1v-13zm137 2v6h2l-1-6zm66 0 1 2zm-270 3v6h1v-6zm269 0 1 4zm-65 6 1 2zm-203 1v5h1v-5zm269 0 1 2zm-204 3 1 2zm137 0m68 1m66 0 1 2zm-335 1 1 2zm134 0m136 1m-207 1m72 0m-134 1 1 2zm270 0m63 0m-198 1m-134 1m270 0m-75 1m135 0m-329 1m135 0m-134 1m270 0m57 0m-272 1m271 0m-190 1m54 0m135 0m-323 1m135 0m-134 1m135 0m-134 1m48 0m87 0m-88 1m89 0m-134 1m44 0m91 0m179 0m-313 1m42 0m93 0m42 0m135 0m-311 1m175 0m96 0m39 0m-173 1m135 0m-134 1m34 0m102 0m-134 1m30 0m105 0m-269 1m136 0m135 0m-131 2m-129 1m7 0m125 0 4 2h2v-2zm136 0 4 2 2-1-1-1zm-1775 25m0 2 1 4zm1886 3m-1885 3 1 3zm1 5 1 2zm1 2 1 2zm1 2m1 2m1 1 1 2zm1 2m1 1m2 3m2 2m1 1m1 1m5 4m3 2m13 5v1h5v-1zm1055 202m0 3m19 0m6 1m5 1 4 1zm7 1m5 1m-384 1m-5 1m400 0m-405 1m-4 1m-6 1m-5 1m440 0m-445 1m454 1m-463 1m-4 1m475 0m-479 1m484 0m-487 1m491 0m-496 1m-3 1m506 0m-510 1m515 0m3 1m-526 1m534 1m3 1m3 1m-553 1m-3 1m427 1v101h1v-101zm142 1m-578 1m-3 1m590 1m8 3m-618 3m-10 4m-2 1m650 0m-659 4m668 0m-675 3m684 1m6 3m2 1m2 1m2 1m2 1m-715 1m716 0m2 1m2 1m2 1m-729 1m731 0m3 2m2 1m3 2m3 2m2 1m1 1m3 2m-768 2m772 1m-776 2m779 0m1 1m1 1m1 1m1 1m1 1m-792 2m-1 1m796 0m-797 1m798 0m1 1 2 2v-2zm-802 2m804 0m1 1m1 1m1 1m1 1m1 1 1 2zm-498 1m172 0v1h12v-1zm327 1m1 1m2 4m2 3m3 8m1 1 1 3zm-833 1m0 15v5h1v-5zm270 0 1 3zm563 0 1 3zm-272 1 1 3zm-290 3m561 1m-560 1m1 1m1 1m1 1m1 1m1 1v2l2-1zm-273 2m276 1m-275 1m276 0m3 2m-277 1m284 2v1h5v-1zm238 0v1h13v-1zm-231 1m3 0v1h195v-1zm-291 1m1 2m810 0m-809 1m1 1m1 1m1 1m1 1m1 1m1 1m1 1m1 1m1 1 1 2 2-1zm790 0m-1 1m-786 1m785 0m-784 1m1 1m2 1m1 1m1 1m2 1m1 1 1 2 2-1zm3 2m2 1m1 1m2 1m1 1m2 1m1 1m2 1m2 1m2 1m1 1m2 1m2 1m1 1m2 1m2 1m2 1m2 1m2 1m2 1m3 1m2 1m2 1m2 1m2 1m3 1m664 1m-660 1m3 1m3 1m4 2m3 1m3 1m5 2m11 4m3 1m3 1m3 1m3 1m3 1m3 1m4 1m3 1m7 2m3 1m3 1m8 2m4 1m4 1m8 2m4 1m463 0m-459 1m455 0m-450 1m445 0m-441 1 4 1zm6 1m425 0m-421 1m417 0m-411 1m4 1 4 1zm6 1m385 0m-380 1 4 1zm8 1m4 1m7 1m336 0m-329 1m13 2m8 1m279 0 4 1zm-6 1m-31 3v1h6v-1zm-195 1m184 0v1h6v-1zm-36 2m4 0m-87 1v1h52v-1z" fill="#026BA5"/>
<path transform="translate(120,1214)" d="m0 0h786l1038 1 1 1v171l-6 12-9 10-8 7-11 5-4 1-733 1h-103l-978-1-10-3-10-6-6-5-4-5-1-3-3-3-1-5-2-3v-6h-1l-1-37v-131zm1819 2 4 1zm-1883 1m1504 68m3 0v1h6v-1zm-8 1v1h5v-1zm18 0 4 1zm117 0 4 1zm17 0v1h5v-1zm118 0 4 1zm18 0v1h5v-1zm-290 1m24 0m110 0m25 0m111 0m25 0m-297 1m29 0m105 0m30 0m106 0m31 0m-303 1m33 0m101 0m34 0m102 0m34 0m-269 1m98 0m37 0m136 0m-309 1m39 0m136 0m136 0m-312 1m41 0m93 0m43 0m136 0m-314 1m134 0m45 0m91 0m45 0m-316 1m134 0m47 0m89 0m47 0m-318 1m48 0m86 0m49 0m87 0m49 0m-320 1m134 0m51 0m85 0m51 0m-322 1m187 0m83 0m53 0m-324 1m189 0m81 0m55 0m-191 1m-135 1m192 0 1 2zm78 0m57 0m-271 1m1 1m136 0m135 0m-330 1 1 2zm60 1m136 0m135 0m-332 1 1 2zm62 1m136 0m135 0 1 2zm-334 2m335 0 1 3zm-271 1 1 2zm-65 2 1 4zm66 1v13h1v-13zm137 2v6h2l-1-6zm66 0 1 2zm-270 3v6h1v-6zm269 0 1 4zm-65 6 1 2zm-203 1v5h1v-5zm269 0 1 2zm-204 3 1 2zm137 0m68 1m66 0 1 2zm-335 1 1 2zm134 0m136 1m-207 1m72 0m-134 1 1 2zm270 0m63 0m-198 1m-134 1m270 0m-75 1m135 0m-329 1m135 0m-134 1m270 0m57 0m-272 1m271 0m-190 1m54 0m135 0m-323 1m135 0m-134 1m135 0m-134 1m48 0m87 0m-88 1m89 0m-134 1m44 0m91 0m179 0m-313 1m42 0m93 0m42 0m135 0m-311 1m175 0m96 0m39 0m-173 1m135 0m-134 1m34 0m102 0m-134 1m30 0m105 0m-269 1m136 0m135 0m-131 2m-129 1m7 0m125 0 4 2h2v-2zm136 0 4 2 2-1-1-1zm-1775 25m1886 5m-1885 3 1 3zm3 9m1 2m3 4m2 3m2 2m1 1m1 1m5 4m3 2m13 5v1h5v-1z" fill="#5BADEC"/>
<path transform="translate(766,459)" d="m0 0h571l84 1 1 1 1 40v425l-1 75-2 1h-683l1-5 8-24 3-15 1-16 1-202v-278l1-2z" fill="#5BADEC"/>
<path transform="translate(566,227)" d="m0 0h273l16 3 7 4 5 5 7 6 4 9 2 7 1 40h307l71 1 10 2 13 6v2l4 1 7 9 5 13 1 8 1 23v40l122 1 20 2 8 3 8 5 8 8 7 14 2 13 1 550-3 21-5 10-10 11-9 6-7 2h-11v2h-784v-1l-24-1-16-3-16-6-11-6-7-3-4-5-7-6-5-3-5-7-7-7-3-7-2-4-3-3-8-23-3-18-1-59-1-13v-567l1-39 1-13 4-10 6-8 7-7 9-5 5-2zm258 51-2 2 4 1v-3zm-247 1v1h7v-1zm240 0m9 47 1 3zm1 7 1 2zm1 4m1 2m1 2m1 1m1 2m1 1m1 1m1 1m1 1m1 1m5 3m2 1v1h5v-1zm-109 54m-5 1m3 0m-9 2m42 49-14 1-1 7v285l-1 190-2 23-6 21-5 12v4h683l2-1 1-75v-425l-1-40-1-1-84-1zm-68 492m-119 2 1 2zm118 1m-117 1 1 4zm116 2m-1 2m-114 1m1 2 1 2zm2 4 1 2zm1 2m1 2m104 0m-103 2m1 1m1 1 1 2zm98 0m-97 2m1 1m94 0m-93 1m92 0m-91 1 1 3v-3z" fill="#026BA5"/>
<path transform="translate(848,1620)" d="m0 0h5l1 46 1 88 5 8v2l4 2 5 4 3 1h256l7-3 6-7 2-8 1-110 1-22h9l39 6 39 8 45 12 35 12 20 8 21 10 16 9 18 12 13 11 7 7 5 7 6 13 1 5v13l-3 10-7 12-11 12-10 9-14 9-21 12-24 11-27 10-27 9-33 9-36 8-41 7-39 5-19 2h-12v1l-28 2-25 1h-86l-38-2-44-4-38-5-41-7-32-7-31-8-28-9-25-9-25-11-2-2-6-3-4-3-6-1-16-10-2-4-11-8-10-9-5-3-8-13-3-8v-17l5-13 7-11 12-12 13-10 18-11 23-12 23-10 30-11 43-12 36-8 41-7zm298 4m19 0m6 1m5 1 4 1zm7 1m5 1m-384 1m-5 1m400 0m-405 1m-4 1m-6 1m-5 1m440 0m-445 1m454 1m-463 1m-4 1m475 0m-479 1m484 0m-487 1m491 0m-496 1m-3 1m506 0m-510 1m515 0m3 1m-526 1m534 1m3 1m3 1m-553 1m-3 1m427 1v101h1v-101zm142 1m-578 1m-3 1m590 1m8 3m-618 3m-10 4m-2 1m650 0m-659 4m668 0m-675 3m684 1m6 3m2 1m2 1m2 1m2 1m-715 1m716 0m2 1m2 1m2 1m-729 1m731 0m3 2m2 1m3 2m3 2m2 1m1 1m3 2m-768 2m772 1m-776 2m779 0m1 1m1 1m1 1m1 1m1 1m-792 2m-1 1m796 0m-797 1m798 0m1 1 2 2v-2zm-802 2m804 0m1 1m1 1m1 1m1 1m1 1 1 2zm1 2m1 1m2 4m2 3m3 8m1 1 1 3zm-833 1m0 15v5h1v-5zm270 0 1 3zm563 0 1 3zm-272 1 1 3zm-290 3m561 1m-560 1m1 1m1 1m1 1m1 1m1 1v2l2-1zm-273 2m276 1m-275 1m276 0m3 2m-277 1m284 2v1h5v-1zm238 0v1h13v-1zm-231 1m3 0v1h195v-1zm-291 1m811 2m-10 10m-1 1m-1 1m-771 10m1 1m2 1m1 1m2 1m1 1m2 1m2 1m2 1m1 1m2 1m2 1m16 8m2 1m2 1m2 1m2 1m3 1m664 1m-660 1m3 1m3 1m4 2m3 1m3 1m5 2m11 4m3 1m3 1m3 1m3 1m3 1m3 1m4 1m3 1m7 2m3 1m3 1m8 2m4 1m4 1m8 2m4 1m463 0m-459 1m455 0m-450 1m445 0m-441 1 4 1zm6 1m425 0m-421 1m417 0m-411 1m4 1 4 1zm6 1m385 0m-380 1 4 1zm8 1m4 1m7 1m336 0m-329 1m13 2m8 1m279 0 4 1zm-6 1m-31 3v1h6v-1zm-195 1m148 2m4 0m-87 1v1h52v-1z" fill="#5BADEC"/>
<path transform="translate(605,277)" d="m0 0h184l35 1 1 2 2-2 1 1 2 54 2 7 6 7 10 5 1 1 126-1h141v1h129l1 2 1 19v32l-5 1h-455l-3 1-51 1-14 7-5 4-7 10-4 10-1 6-1 29v465l-1 11-1 1-1 8-6 12-7 9-5 5-3 1-4 4-8 5-15 5-6 1h-10l-12-2-14-6-7-5-2-4-5-5-6-7h-2l-6-12v-6h-2l-2-15-1-21v-565l1-76zm-28 2v1h7v-1zm240 0m9 47 1 3zm1 7 1 2zm1 4m1 2m1 2m1 1m1 2m1 1m1 1m1 1m1 1m1 1m5 3m-107 55m-5 1m-6 2m-27 544m-1 3m-1 2m-114 1m1 2 1 2zm2 4 1 2z" fill="#5AACEB"/>
<path transform="translate(907,1475)" d="m0 0h186l1 1v245l-1 1h-186l-1-1-1-50v-194zm1 245m172 0v1h12v-1z" fill="#5BADEC"/>
<path transform="translate(1692,1287)" d="m0 0h20l7 3 2 3 5 3 3 4v2h2l4 12v11l-4 10-8 9-9 6-7 2h-12l-12-6-5-3-3-5-4-6-3-8v-10l4-10 6-8 8-6 1-2z" fill="#026BA5"/>
<path transform="translate(1825,1287)" d="m0 0h23v2l6 2 8 5 6 11 2 6v11l-3 9-3 6-5 4-2 3-10 5-5 1h-11l-10-4-10-9-6-10-1-4v-12l3-9 4-5 2-4 10-6h2z" fill="#026BA5"/>
<path transform="translate(1555,1287)" d="m0 0h22v2l6 2 9 8 5 10 1 4v13l-3 8-6 8-9 7-9 3h-10l-9-4-9-7-6-9-2-6v-14l3-9 4-5 2-4 7-4z" fill="#026BA5"/>
</svg>
