<?xml version="1.0" encoding="UTF-8"?>
<svg version="1.1" xmlns="http://www.w3.org/2000/svg" width="512" height="512">
<path d="M0 0 C0.90686336 -0.00445784 1.81372671 -0.00891569 2.74807078 -0.01350862 C4.23680859 -0.01323207 4.23680859 -0.01323207 5.75562191 -0.01294994 C7.34169204 -0.01846498 7.34169204 -0.01846498 8.959804 -0.02409142 C12.51478997 -0.03513385 16.06974672 -0.03897308 19.62474728 -0.04278088 C22.16903431 -0.04904514 24.71332044 -0.05569191 27.25760555 -0.0626936 C34.90158817 -0.08192448 42.54556565 -0.0925228 50.18956628 -0.10142139 C53.79188698 -0.10580726 57.39420622 -0.11117334 60.99652576 -0.11641026 C72.97634132 -0.13342189 84.95615597 -0.14791479 96.93598175 -0.155159 C100.04382548 -0.1570688 103.1516692 -0.15898915 106.2595129 -0.16094494 C107.03192532 -0.16142868 107.80433774 -0.16191242 108.6001566 -0.16241082 C121.10524564 -0.17070637 133.61023888 -0.19603552 146.11528612 -0.22852562 C158.96257877 -0.26163192 171.8098228 -0.27961103 184.65715832 -0.28280324 C191.86693573 -0.28496516 199.07657349 -0.29366694 206.28630924 -0.31926441 C213.07183211 -0.34330047 219.85706071 -0.34677473 226.64263248 -0.33650303 C229.12942496 -0.33600776 231.61622983 -0.3423255 234.10298443 -0.35605907 C237.50613216 -0.3737978 240.90838102 -0.36666108 244.31153011 -0.35352612 C245.28840694 -0.36449536 246.26528376 -0.37546461 247.27176291 -0.38676625 C260.01321074 -0.26858344 270.27829339 5.25807622 279.60301876 13.63422108 C287.09504818 21.38148998 291.62436568 31.9378986 291.57567501 42.64984608 C291.57245235 43.9002367 291.5692297 45.15062733 291.56590939 46.43890858 C291.55753048 47.7408617 291.54915157 49.04281483 291.54051876 50.38422108 C291.53600704 51.70164295 291.53149532 53.01906483 291.52684689 54.37640858 C291.51506192 57.62905849 291.49860887 60.88161692 291.47801876 64.13422108 C292.65606075 64.10280018 292.65606075 64.10280018 293.85790157 64.07074451 C297.48113912 63.98663174 301.10417024 63.9352612 304.72801876 63.88422108 C305.96294064 63.85070545 307.19786251 63.81718983 308.47020626 63.78265858 C322.01323722 63.64010036 332.30783955 67.10623123 342.47801876 76.13422108 C354.40695839 88.04280415 356.11365167 100.65008543 356.14455318 116.7375536 C356.13323979 119.07038077 356.12141244 121.40320549 356.10912228 123.73602772 C356.11426672 126.22091144 356.12155194 128.70579151 356.13080502 131.19066334 C356.14734731 137.2136144 356.14073123 143.23612329 356.12271679 149.25903613 C356.10863644 154.15757825 356.1048096 159.05603229 356.10815907 163.9545927 C356.10863651 164.65430842 356.10911395 165.35402413 356.10960586 166.07494335 C356.11063229 167.49681265 356.11168765 168.91868193 356.11277162 170.34055119 C356.12132008 182.8858531 356.10472353 195.43099832 356.07494259 207.97626209 C356.0461035 220.12509204 356.03902696 232.27369635 356.05443478 244.42255116 C356.07122775 257.68156975 356.07520014 270.94048145 356.05772442 284.19950289 C356.0558802 285.61555698 356.05404547 287.03161109 356.05222034 288.44766521 C356.05130825 289.14422584 356.05039617 289.84078646 356.04945644 290.55845498 C356.04387073 295.44666991 356.04713973 300.33483233 356.0537653 305.2230444 C356.06234198 311.81172527 356.04923451 318.40013084 356.02191639 324.98877621 C356.01505334 327.40096038 356.01491213 329.81317488 356.02213192 332.22535801 C356.06784244 349.49223915 355.46717914 362.63041589 343.47801876 376.13422108 C335.27795709 384.07896947 324.83434282 389.22448017 313.37834835 389.29243946 C311.50215816 389.30712269 311.50215816 389.30712269 309.58806515 389.32210255 C308.20470371 389.32800633 306.82134188 389.3338168 305.4379797 389.33954334 C303.97927735 389.34912495 302.52057776 389.3591352 301.06188107 389.36954212 C297.10358415 389.39656664 293.14527535 389.41758948 289.18693733 389.43754411 C285.0495878 389.45941879 280.91227483 389.48680023 276.7749548 389.51360035 C268.94109605 389.56350718 261.10721699 389.60845347 253.27331853 389.65162271 C244.35438707 389.70101225 235.43549229 389.75592402 226.51659632 389.8113023 C208.17043634 389.92509152 189.82424263 390.03120823 171.47801876 390.13422108 C174.77801876 398.71422108 178.07801876 407.29422108 181.47801876 416.13422108 C183.64751095 416.14356678 185.81700314 416.15291248 188.05223751 416.16254139 C195.2408545 416.19639231 202.42918687 416.2519861 209.61757565 416.31812382 C213.97357795 416.35754013 218.32937987 416.38975709 222.68553829 416.40521717 C226.89386269 416.42042254 231.101636 416.45493609 235.30971432 416.5025301 C236.91071931 416.51730408 238.511803 416.5252598 240.11287594 416.52610493 C257.04943325 416.54402715 257.04943325 416.54402715 264.50145626 422.84515858 C269.11475326 428.52511384 270.95101918 433.47457621 270.71630001 440.83734608 C269.95936207 448.13373146 267.10664835 452.05462431 261.51317501 456.68890858 C257.96295132 459.21018068 255.33386433 460.38336805 250.94765759 460.39428329 C249.58458741 460.40488168 249.58458741 460.40488168 248.19398046 460.41569418 C247.19944222 460.41327909 246.20490399 460.41086401 245.18022823 460.40837574 C244.12073145 460.41361242 243.06123466 460.4188491 241.96963191 460.42424446 C238.40761105 460.43928603 234.84573331 460.43995054 231.28368282 460.44061756 C228.7345267 460.44823628 226.18537288 460.45666328 223.63622189 460.46584034 C216.70225186 460.48782146 209.76833162 460.49661085 202.83433151 460.50166678 C198.50378177 460.50492418 194.17324091 460.51144694 189.84269619 460.51866817 C177.85000679 460.53823436 165.85732565 460.5546383 153.86461926 460.55754471 C152.71348034 460.55782606 152.71348034 460.55782606 151.53908609 460.5581131 C149.98335664 460.55847935 148.42762718 460.55884305 146.87189773 460.55920421 C145.71351455 460.55947843 145.71351455 460.55947843 144.5317297 460.55975819 C143.75853035 460.55993874 142.985331 460.56011928 142.18870136 460.5603053 C129.66215471 460.56384639 117.13578003 460.59086451 104.60929301 460.62825608 C91.74505736 460.66634814 78.88090702 460.68570225 66.01661372 460.68600422 C58.7951692 460.68658861 51.5739298 460.69506856 44.35253811 460.72400188 C37.55958025 460.75109362 30.76709694 460.75241301 23.97408199 460.73634624 C21.48119122 460.73452808 18.98827733 460.7412554 16.49543667 460.75716496 C13.09105636 460.77756684 9.68810563 460.76710636 6.28374386 460.74895191 C5.29812851 460.76215188 4.31251317 460.77535185 3.29703069 460.78895181 C-3.98079198 460.70035971 -8.75385681 458.70193132 -14.04568934 453.69155401 C-18.671072 448.57483989 -20.02314367 443.22998473 -19.83057499 436.50140858 C-18.92609099 429.56321483 -15.75095275 424.68264103 -10.40088749 420.32562733 C-5.73483441 417.36690344 -1.73968397 416.87222836 3.74681759 416.81537342 C4.45955837 416.8053278 5.17229916 416.79528217 5.90663815 416.78493214 C8.24943432 416.75417867 10.59211662 416.73708712 12.93505001 416.72015858 C14.56459178 416.70144059 16.19412393 416.68186671 17.82364559 416.66147327 C22.1028287 416.61021257 26.38204321 416.5705545 30.66136837 416.53332996 C35.03197109 416.49325224 39.40244386 416.44217711 43.77294064 416.39203358 C52.34121767 416.29534601 60.90954861 416.21193533 69.47801876 416.13422108 C72.77801876 407.55422108 76.07801876 398.97422108 79.47801876 390.13422108 C75.05226437 390.12487537 70.62650997 390.11552967 66.06664181 390.10590076 C51.43019049 390.07210624 36.79387914 390.01674328 22.15754128 389.95031834 C13.28511613 389.91057693 4.41277906 389.87815962 -4.45972538 389.86322498 C-12.19662825 389.850183 -19.93333694 389.82315363 -27.67013043 389.77960801 C-31.76346207 389.75705021 -35.85655473 389.74130696 -39.94995403 389.74233723 C-43.81031828 389.74308723 -47.67015539 389.72500168 -51.53038311 389.69305325 C-52.93995092 389.68460078 -54.34957819 389.68277238 -55.75916004 389.68841839 C-67.90617187 389.73055621 -77.63564183 387.30129016 -87.52198124 380.13422108 C-88.11623905 379.71656483 -88.71049686 379.29890858 -89.32276249 378.86859608 C-97.66750791 372.42963509 -102.20193508 363.22255849 -104.52198124 353.13422108 C-104.91302877 349.54071086 -104.93664315 345.98867002 -104.91639042 342.37633228 C-104.92248152 341.33973809 -104.92857263 340.3031439 -104.93484831 339.23513776 C-104.95140289 335.78626477 -104.94671319 332.33776404 -104.94190311 328.88885975 C-104.94924781 326.40604236 -104.9578352 323.92322838 -104.9675684 321.4404192 C-104.98745016 315.41082409 -104.99316734 309.38137351 -104.99138051 303.35175844 C-104.99006929 298.44696704 -104.99389534 293.54220549 -105.00130558 288.6374197 C-105.00340493 287.22083976 -105.00550253 285.80425982 -105.0075984 284.38767987 C-105.00864193 283.68245269 -105.00968546 282.9772255 -105.01076061 282.25062779 C-105.02963439 268.93341368 -105.02862159 255.61625473 -105.02179128 242.29903278 C-105.01621801 230.13836141 -105.03703703 217.97790084 -105.07015175 205.81727871 C-105.10395337 193.30651395 -105.11904904 180.79585 -105.11443472 168.28503877 C-105.11219654 161.27088904 -105.11733721 154.25693412 -105.14232731 147.2428236 C-105.16563806 140.64432365 -105.16267934 134.04618759 -105.14239979 127.44765377 C-105.13899757 125.03265382 -105.14404457 122.61762415 -105.15838337 120.20266438 C-105.24706776 104.15279987 -104.8379319 91.13820261 -93.81494999 78.41937733 C-84.79873282 69.4338798 -74.96912079 63.99561087 -62.10401249 63.74359608 C-59.51387737 63.76982529 -56.92387671 63.81699763 -54.33448124 63.88422108 C-52.98750296 63.90434218 -51.64049524 63.92258292 -50.29346561 63.93890858 C-47.03553208 63.9856173 -43.77915469 64.05110545 -40.52198124 64.13422108 C-40.5429285 63.34362293 -40.56387577 62.55302479 -40.5854578 61.73846912 C-40.66944402 58.09968644 -40.72090212 54.46110864 -40.77198124 50.82172108 C-40.80549686 49.5784203 -40.83901249 48.33511951 -40.87354374 47.05414295 C-41.02227725 32.88727652 -36.41870258 22.47010103 -27.02198124 12.00922108 C-20.06803832 5.28438093 -9.74722137 0.022284 0 0 Z " fill="#2D2D2D" transform="translate(130.52198123931885,25.865778923034668)"/>
<path d="M0 0 C101.64 0 203.28 0 308 0 C308 130.30935252 308 130.30935252 297.37109375 141.75390625 C288.8104919 149.67891817 279.2454791 151.14935696 268.01974487 151.14717102 C266.49977172 151.15268605 266.49977172 151.15268605 264.94909203 151.1583125 C261.5492268 151.16933691 258.14939214 151.17319108 254.74951172 151.17700195 C252.31345015 151.18326753 249.87738953 151.18991441 247.44132996 151.19691467 C240.12850648 151.21612997 232.81568555 151.22674087 225.50284451 151.23564246 C222.05543471 151.24003045 218.60802643 151.24539591 215.16061783 151.25063133 C203.69460558 151.26763988 192.22859426 151.28213307 180.76257133 151.28938007 C177.78930536 151.29128983 174.81603939 151.29321018 171.84277344 151.29516602 C170.7343482 151.29589163 170.7343482 151.29589163 169.60353054 151.2966319 C157.63845798 151.30492864 145.6734855 151.33026119 133.70845662 151.36274669 C121.41257828 151.3958572 109.11675074 151.41383241 96.8208276 151.41702431 C89.92181825 151.41918565 83.02295489 151.42787906 76.12398911 151.45348549 C69.63150077 151.47752825 63.13920352 151.48099316 56.64667702 151.47072411 C54.26792465 151.47022901 51.8891593 151.47654161 49.51044655 151.49028015 C46.2540378 151.50803086 42.99856732 151.50087652 39.74215698 151.48774719 C38.80876271 151.49871644 37.87536844 151.50968568 36.91368949 151.52098733 C26.74411602 151.42251561 17.41369374 148.07227363 10 141 C-20.40763795 107.06784037 0 12.63446727 0 0 Z " fill="#9661F9" transform="translate(102,81)"/>
<path d="M0 0 C0.98613281 0.00322266 1.97226563 0.00644531 2.98828125 0.00976562 C4.02082031 0.01814453 5.05335937 0.02652344 6.1171875 0.03515625 C7.67759766 0.04192383 7.67759766 0.04192383 9.26953125 0.04882812 C11.84380712 0.06063673 14.41796896 0.0771055 16.9921875 0.09765625 C16.99583313 1.08800369 16.99947876 2.07835114 17.00323486 3.09870911 C17.04030922 12.46965961 17.09821677 21.84028527 17.17609024 31.21098804 C17.2154602 36.02763467 17.24769982 40.84410134 17.26318359 45.66088867 C17.27841957 50.31658597 17.31298697 54.97178819 17.36049652 59.62726402 C17.37523913 61.39605066 17.38322439 63.164908 17.38407135 64.93375587 C17.39841371 79.87914808 19.6685303 92.64508198 29.921875 104.2890625 C37.41302581 111.51953224 47.8851165 117.20745907 58.482934 117.23187733 C59.38283056 117.23633517 60.28272713 117.24079301 61.20989329 117.24538594 C62.19460326 117.24520158 63.17931324 117.24501722 64.19386292 117.24482727 C65.2430759 117.24850396 66.29228888 117.25218065 67.3732962 117.25596875 C70.90064314 117.26701072 74.42796062 117.27085033 77.95532227 117.2746582 C80.47990513 117.2809225 83.00448707 117.28756927 85.52906799 117.29457092 C93.11372488 117.31380146 100.6983766 117.32440009 108.28305164 117.33329871 C111.8574788 117.33768465 115.43190449 117.34305072 119.00633049 117.34828758 C130.89349974 117.3652992 142.78066808 117.37979206 154.66784763 117.38703632 C157.75162825 117.38894613 160.83540886 117.39086647 163.91918945 117.39282227 C164.68562064 117.39330601 165.45205183 117.39378975 166.24170821 117.39428815 C178.64979972 117.40258359 191.05779467 117.42791258 203.46584404 117.46040294 C216.21369562 117.49351005 228.96149819 117.51148843 241.70939296 117.51468056 C248.8632795 117.51684241 256.01702528 117.52554313 263.17086983 117.55114174 C269.90386368 117.57517914 276.63656097 117.57865156 283.36960411 117.56838036 C285.83704597 117.56788512 288.30450031 117.57420197 290.77190399 117.5879364 C294.14877962 117.60567722 297.52474956 117.59853742 300.90162659 117.58540344 C301.87072151 117.59637269 302.83981644 117.60734193 303.83827788 117.61864358 C315.42680743 117.51033901 326.49150301 112.82196665 335.18359375 105.16796875 C343.75984824 96.28251344 348.10307473 85.3995467 348.19750977 73.20800781 C348.20740936 72.41738449 348.21730896 71.62676117 348.22750854 70.81217957 C348.25904411 68.20424371 348.28384951 65.59628965 348.30859375 62.98828125 C348.32917014 61.17795341 348.35016679 59.3676303 348.37156677 57.55731201 C348.4267167 52.79640539 348.47615717 48.03545591 348.52441406 43.2744751 C348.5746808 38.41471551 348.63033986 33.55501803 348.68554688 28.6953125 C348.79304186 19.16281349 348.89450603 9.63026052 348.9921875 0.09765625 C352.3878572 0.01019679 355.78323523 -0.04288819 359.1796875 -0.08984375 C360.13939453 -0.11498047 361.09910156 -0.14011719 362.08789062 -0.16601562 C371.08731878 -0.25943529 371.08731878 -0.25943529 374.9921875 3.09765625 C377.43906583 6.76797375 377.27459165 9.5082474 377.25288391 13.75180054 C377.25670946 14.53896159 377.26053501 15.32612264 377.26447648 16.13713706 C377.27482209 18.78338653 377.27081138 21.42941966 377.2668457 24.07568359 C377.27119135 25.96946921 377.276374 27.86325307 377.28233337 29.7570343 C377.29575133 34.90787428 377.29629888 40.05864101 377.29377007 45.20949507 C377.29270213 49.50631289 377.29757925 53.80311578 377.3023755 58.09993041 C377.31348061 68.23590241 377.31390261 78.37183735 377.30786133 88.5078125 C377.30182125 98.97050585 377.31413115 109.43306474 377.3354314 119.89573514 C377.35303573 128.87245364 377.35905055 137.8491293 377.35579365 146.82586443 C377.3539786 152.18990966 377.35663903 157.55385901 377.37050819 162.91788864 C377.3830627 167.96250328 377.38116496 173.00690807 377.36809731 178.05151939 C377.36572669 179.90386335 377.36848353 181.75622196 377.37672043 183.60854912 C377.38714877 186.13579262 377.37911894 188.66232694 377.3664093 191.18954468 C377.37378359 191.92388713 377.38115787 192.65822959 377.38875562 193.41482484 C377.34223691 197.80685482 376.78019638 200.65708393 373.9921875 204.09765625 C370.57557783 206.32702866 367.68115222 206.34993032 363.65744877 206.35492516 C362.34629473 206.36137405 361.03514069 206.36782294 359.68425471 206.37446725 C358.22562437 206.37152486 356.76699442 206.36838941 355.30836487 206.36508179 C353.76167371 206.36881708 352.21498444 206.37341812 350.66829818 206.37881243 C346.4113769 206.39107263 342.15453402 206.39077843 337.8975991 206.38842368 C333.30924313 206.38801628 328.72091256 206.39904723 324.13256836 206.40853882 C315.14105573 206.4251658 306.14956933 206.43064911 297.15804262 206.43176357 C289.8517308 206.43271314 282.54542765 206.43681887 275.23911858 206.44316483 C254.53650194 206.46078105 233.83390605 206.47000298 213.13128186 206.46850388 C212.01473375 206.46842397 210.89818564 206.46834405 209.74780273 206.46826172 C208.62989575 206.46817996 207.51198877 206.4680982 206.36020582 206.46801396 C188.23489534 206.46720071 170.1096679 206.48634707 151.98438144 206.51453845 C133.38535063 206.54323908 114.78636035 206.55708034 96.18730682 206.5553509 C85.74051816 206.55468607 75.29381656 206.56021901 64.84704781 206.581707 C55.95398315 206.59988162 47.06104504 206.60429676 38.16796989 206.59068815 C33.62861176 206.58413994 29.08949666 206.58410785 24.55016136 206.60139465 C20.39694405 206.61704875 16.24416402 206.6143409 12.09095787 206.59682639 C10.58628589 206.59373951 9.08158188 206.59745197 7.57694764 206.60854654 C5.53559795 206.62260505 3.49411545 206.60972558 1.45276737 206.59543419 C0.31767327 206.59586892 -0.81742082 206.59630366 -1.98691171 206.59675157 C-5.70382196 205.98266569 -7.36391878 204.73870257 -10.0078125 202.09765625 C-11.21003206 198.49099756 -11.15592039 195.19786585 -11.15498352 191.44351196 C-11.15866021 190.65635091 -11.1623369 189.86918986 -11.166125 189.05817544 C-11.17716664 186.41198671 -11.18100646 183.76583724 -11.18481445 181.11962891 C-11.19107862 179.22584406 -11.19772537 177.33206046 -11.20472717 175.4382782 C-11.2221383 170.28746223 -11.23268873 165.13665554 -11.2409327 159.98581743 C-11.24608144 156.76940658 -11.25215716 153.55299862 -11.25844383 150.33658981 C-11.27749417 140.27777233 -11.291727 130.2189622 -11.3000558 120.16013014 C-11.30983592 108.53986018 -11.33617634 96.91978031 -11.37655669 85.29957736 C-11.40668332 76.32286592 -11.42152129 67.34620909 -11.42483681 58.36944807 C-11.42719076 53.00535425 -11.43619631 47.64146356 -11.46129799 42.27742386 C-11.48452405 37.2327809 -11.48883399 32.18847561 -11.47853661 27.14379311 C-11.47803984 25.29143846 -11.48440151 23.4390675 -11.49809265 21.58676338 C-11.51573 19.05935727 -11.50874635 16.53317382 -11.49555969 14.00576782 C-11.50652894 13.27142537 -11.51749818 12.53708291 -11.52879983 11.78048766 C-11.46787188 6.94935795 -10.44104622 4.48782485 -7.0078125 1.09765625 C-4.50284246 -0.15482877 -2.79927976 -0.01608781 0 0 Z " fill="#EDF3F7" transform="translate(73.0078125,125.90234375)"/>
<path d="M0 0 C1.73056641 0.00966797 1.73056641 0.00966797 3.49609375 0.01953125 C4.68589844 0.03628906 5.87570313 0.05304688 7.1015625 0.0703125 C8.31457031 0.07933594 9.52757812 0.08835937 10.77734375 0.09765625 C13.76050179 0.12114568 16.74355782 0.15701429 19.7265625 0.1953125 C19.7265625 4.1553125 19.7265625 8.1153125 19.7265625 12.1953125 C18.086875 12.22109375 16.4471875 12.246875 14.7578125 12.2734375 C12.58070341 12.32974205 10.40362111 12.38708884 8.2265625 12.4453125 C7.14890625 12.45949219 6.07125 12.47367188 4.9609375 12.48828125 C-2.73818161 12.72301049 -8.71509241 13.67747988 -14.33203125 19.23046875 C-14.78707031 19.89949219 -15.24210937 20.56851563 -15.7109375 21.2578125 C-16.18402344 21.92941406 -16.65710937 22.60101563 -17.14453125 23.29296875 C-19.58811127 27.41069701 -19.42174403 31.34495023 -19.42060852 35.97439575 C-19.42612355 37.17540525 -19.42612355 37.17540525 -19.43175 38.40067756 C-19.44279307 41.09280841 -19.44663176 43.78490067 -19.45043945 46.47705078 C-19.45670371 48.40375389 -19.46335047 50.3304558 -19.47035217 52.25715637 C-19.491402 58.59330401 -19.50175639 64.92945191 -19.51171875 71.265625 C-19.51576616 73.44686775 -19.51988308 75.62811038 -19.52406883 77.80935287 C-19.54312364 88.05825986 -19.55735327 98.30715964 -19.5656808 108.55608094 C-19.57545046 120.3845914 -19.60176177 132.21291459 -19.64218169 144.04135907 C-19.67235273 153.18458595 -19.68715068 162.32775919 -19.69046181 171.47103488 C-19.69281145 176.93138806 -19.70176068 182.39154123 -19.72692299 187.85184097 C-19.75022541 192.99170443 -19.75442811 198.13123653 -19.74416161 203.27113914 C-19.74366664 205.15406459 -19.74997542 207.03700646 -19.76371765 208.91988182 C-20.17276341 223.75621663 -20.17276341 223.75621663 -13.23828125 236.3515625 C-12.56925781 236.795 -11.90023437 237.2384375 -11.2109375 237.6953125 C-10.53933594 238.159375 -9.86773437 238.6234375 -9.17578125 239.1015625 C-5.40157667 241.27153639 -2.27877106 241.32286787 1.98954964 241.32953358 C2.63020843 241.33188581 3.27086722 241.33423804 3.93093991 241.33666155 C6.09233333 241.34335457 8.25366666 241.34289323 10.41506958 241.34248352 C11.97454478 241.34578196 13.53401913 241.34950749 15.09349239 241.353625 C19.39053658 241.36365545 23.6875668 241.36736347 27.98462105 241.37001431 C32.61464661 241.37391429 37.24466108 241.38349287 41.87467957 241.39222717 C53.06229595 241.41200071 64.24991325 241.42205912 75.43754274 241.43095496 C80.7042718 241.43533659 85.97099985 241.44070374 91.23772812 241.44594383 C108.74282943 241.46295734 126.2479301 241.47745174 143.75303841 241.48469257 C148.29694749 241.48660251 152.84085656 241.48852284 157.38476562 241.49047852 C158.51415133 241.49096226 159.64353703 241.491446 160.80714653 241.4919444 C179.10441016 241.50024553 197.40160842 241.52558332 215.69884349 241.55805919 C234.47865933 241.59112018 253.25844195 241.60914048 272.03828704 241.61233681 C282.58471025 241.61450285 293.13103815 241.62326513 303.67743301 241.64879799 C312.65896727 241.67049188 321.64038308 241.67856187 330.62194057 241.66883121 C335.20432195 241.66428266 339.78645889 241.66620497 344.36880684 241.68559265 C348.56605689 241.70319756 352.76288369 241.70224842 356.96013807 241.68669536 C358.47635437 241.68431521 359.99259977 241.68866398 361.50877155 241.70052401 C370.14877639 241.76390801 378.4552852 241.81044419 385.2987777 235.81879979 C390.34869235 230.27619584 391.02398542 224.250567 390.99398804 217.04873657 C391.00078471 215.84282382 391.00078471 215.84282382 391.00771868 214.61254919 C391.02034635 211.92735013 391.01874338 209.24235431 391.01708984 206.55712891 C391.02307607 204.62835938 391.02988183 202.69959224 391.03744507 200.77082825 C391.0551016 195.53732939 391.05980028 190.30389596 391.06107664 185.0703702 C391.06249887 181.79947385 391.06676981 178.5285941 391.07207108 175.25770187 C391.09056945 163.84334 391.09874183 152.42902481 391.09716797 141.01464844 C391.09596628 130.37980464 391.11707464 119.74516369 391.1486553 109.11037123 C391.17481607 99.97473466 391.18553536 90.83916436 391.18425715 81.70349061 C391.18374751 76.2493739 391.18943231 70.79543754 391.21061325 65.34135818 C391.22999245 60.21129148 391.23012216 55.08157724 391.21557999 49.95149803 C391.21349048 48.07138109 391.21820122 46.19124211 391.2303009 44.31116295 C391.24577947 41.73898159 391.2364286 39.16801172 391.22103882 36.59585571 C391.23646951 35.48717367 391.23646951 35.48717367 391.25221193 34.356094 C391.17331204 28.36450469 389.40374276 23.17710292 385.35007608 18.66220915 C378.70810383 12.71442166 371.29564899 12.81989141 362.8515625 12.5703125 C361.78164063 12.53164062 360.71171875 12.49296875 359.609375 12.453125 C356.98204095 12.35929164 354.35432598 12.27623228 351.7265625 12.1953125 C351.7265625 8.2353125 351.7265625 4.2753125 351.7265625 0.1953125 C355.33120046 0.11345781 358.9339318 0.05440188 362.5390625 0.0078125 C364.04629883 -0.02989258 364.04629883 -0.02989258 365.58398438 -0.06835938 C375.79557138 -0.16686343 384.69805717 1.36112575 392.65234375 8.1015625 C401.0558531 16.58420094 404.03085437 24.52994077 404.00071716 36.25112915 C404.00595384 37.2605099 404.01119052 38.26989064 404.01658589 39.30985868 C404.03158164 42.69049932 404.03229096 46.07098854 404.03295898 49.45166016 C404.04058085 51.87639623 404.04900839 54.30112989 404.05818176 56.7258606 C404.08013341 63.31288046 404.08894887 69.89986451 404.09400821 76.48691225 C404.09726977 80.60409682 404.10379509 84.72127209 404.1110096 88.83845139 C404.13057228 100.24960083 404.146978 111.66074165 404.14988613 123.07190895 C404.1500737 123.80164707 404.15026127 124.53138519 404.15045452 125.28323659 C404.15082076 126.76244505 404.15118446 128.24165352 404.15154564 129.72086199 C404.15172845 130.45509179 404.15191126 131.18932159 404.15209961 131.94580078 C404.15237043 133.04849837 404.15237043 133.04849837 404.15264673 134.17347269 C404.15618587 146.07640752 404.18319339 157.97916115 404.2205975 169.88203318 C404.25873908 182.11806503 404.27804404 194.35400711 404.27834564 206.59009969 C404.27892896 213.45394195 404.28733904 220.31756812 404.31634331 227.18135452 C404.34351549 233.64106873 404.34471232 240.1004685 404.32868767 246.56022263 C404.32687541 248.92565595 404.33354355 251.29111398 404.34950638 253.65649414 C404.52384571 281.17740336 404.52384571 281.17740336 393.82421875 292.44140625 C386.69519556 298.40217238 379.48116043 301.31529199 370.29646873 301.32953358 C369.64989057 301.33188581 369.00331241 301.33423804 368.33714098 301.33666155 C366.1616233 301.3433403 363.9861655 301.34289367 361.81063843 301.34248352 C360.23863847 301.34578284 358.66663936 301.34950856 357.09464133 301.353625 C352.76758238 301.3636453 348.44053731 301.36736184 344.11346841 301.37001431 C339.44935787 301.37391726 334.78525831 301.38349559 330.12115479 301.39222717 C318.85386102 301.41199163 307.58656635 301.42205768 296.31925958 301.43095496 C291.01380984 301.43533781 285.70836109 301.44070462 280.40291214 301.44594383 C262.76738123 301.46295594 245.13185095 301.47745032 227.4963131 301.48469257 C222.91957982 301.48660248 218.34284654 301.48852281 213.76611328 301.49047852 C212.62858355 301.49096226 211.49105382 301.491446 210.31905349 301.4919444 C191.88996544 301.5002455 173.46094228 301.52558387 155.03188257 301.55805919 C136.11303873 301.59112593 117.19422787 301.60914098 98.27535498 301.61233681 C87.65234391 301.61450224 77.02942747 301.62325577 66.40644455 301.64879799 C57.35981926 301.67049968 48.3133116 301.67855799 39.26666324 301.66883121 C34.65174737 301.66428501 30.03707423 301.66619135 25.42219162 301.68559265 C21.19408987 301.70321422 16.96640809 301.70223485 12.73830195 301.68669536 C11.21200363 301.68431776 9.68567631 301.68865079 8.15942232 301.70052401 C-3.99259914 301.78917249 -14.26234123 299.93510694 -23.2734375 291.1953125 C-30.17849483 282.75579798 -32.73010196 274.61679323 -32.66111755 263.87879944 C-32.66919586 262.35899 -32.66919586 262.35899 -32.67743737 260.80847734 C-32.69169911 257.42696212 -32.68461746 254.04583933 -32.67749023 250.66430664 C-32.6831947 248.23440741 -32.69015925 245.80451086 -32.69828796 243.37461853 C-32.71436389 237.46775793 -32.7163218 231.56099563 -32.71107506 225.6541248 C-32.70702708 220.85127343 -32.70848436 216.04845344 -32.71382332 211.24560356 C-32.71457174 210.5609964 -32.71532016 209.87638924 -32.71609126 209.1710364 C-32.7176228 207.78008425 -32.71916115 206.3891321 -32.72070623 204.99817996 C-32.73442112 191.96627319 -32.72900062 178.93442652 -32.71752102 165.90252113 C-32.70758881 153.99124179 -32.72053084 142.08011779 -32.74445521 130.16886241 C-32.76886179 117.92486517 -32.77845032 105.68094023 -32.77180248 93.43691915 C-32.76831383 86.56821673 -32.77051891 79.69963376 -32.78805351 72.83094978 C-32.80433814 66.37205448 -32.7995696 59.91338262 -32.78074837 53.45449257 C-32.77706186 51.08619493 -32.78017269 48.71787533 -32.79063416 46.34959793 C-32.80384082 43.11232687 -32.79229835 39.87603832 -32.77464294 36.6388092 C-32.78424795 35.70552656 -32.79385296 34.77224391 -32.80374902 33.81067997 C-32.69693238 24.26703634 -28.86373313 16.09409005 -22.2734375 9.1953125 C-15.35767121 3.47347329 -9.16095975 -0.09070257 0 0 Z " fill="#2BB4FE" transform="translate(70.2734375,101.8046875)"/>
<path d="M0 0 C6.93 0 13.86 0 21 0 C21.06959227 15.60371334 21.12305805 31.20737129 21.15543652 46.8112011 C21.17087327 54.05713068 21.19190132 61.30296178 21.22631836 68.54882812 C21.25631893 74.86792862 21.27559817 81.18695774 21.28226548 87.50612748 C21.28615986 90.84888271 21.29684355 94.19127293 21.31719017 97.53399277 C21.33905133 101.27522501 21.34196321 105.0160381 21.34057617 108.75732422 C21.35675491 110.40055412 21.35675491 110.40055412 21.3732605 112.07698059 C21.32676866 123.70964755 18.36820723 133.14310541 10.37109375 141.75390625 C1.8104919 149.67891817 -7.7545209 151.14935696 -18.98025513 151.14717102 C-20.50022828 151.15268605 -20.50022828 151.15268605 -22.05090797 151.1583125 C-25.4507732 151.16933691 -28.85060786 151.17319108 -32.25048828 151.17700195 C-34.68654985 151.18326753 -37.12261047 151.18991441 -39.55867004 151.19691467 C-46.87149352 151.21612997 -54.18431445 151.22674087 -61.49715549 151.23564246 C-64.94456529 151.24003045 -68.39197357 151.24539591 -71.83938217 151.25063133 C-83.30539442 151.26763988 -94.77140574 151.28213307 -106.23742867 151.28938007 C-109.21069464 151.29128983 -112.18396061 151.29321018 -115.15722656 151.29516602 C-116.2656518 151.29589163 -116.2656518 151.29589163 -117.39646946 151.2966319 C-129.36154202 151.30492864 -141.3265145 151.33026119 -153.29154338 151.36274669 C-165.58742172 151.3958572 -177.88324926 151.41383241 -190.1791724 151.41702431 C-197.07818175 151.41918565 -203.97704511 151.42787906 -210.87601089 151.45348549 C-217.36849923 151.47752825 -223.86079648 151.48099316 -230.35332298 151.47072411 C-232.73207535 151.47022901 -235.1108407 151.47654161 -237.48955345 151.49028015 C-240.7459622 151.50803086 -244.00143268 151.50087652 -247.25784302 151.48774719 C-248.19123729 151.49871644 -249.12463156 151.50968568 -250.08631051 151.52098733 C-260.23840437 151.42268486 -269.61037434 148.08373701 -277 141 C-283 134.11349036 -283 134.11349036 -283 131 C-210.73 131 -138.46 131 -64 131 C-64.99 129.02 -65.98 127.04 -67 125 C-67.6875 122.625 -67.6875 122.625 -68 121 C-72.07964281 122.30155006 -72.07964281 122.30155006 -76 124 C-78.625 124.5 -78.625 124.5 -82 124 C-84.9664363 121.9722332 -87.45445723 119.52596167 -90 117 C-91.00546875 116.03320312 -91.00546875 116.03320312 -92.03125 115.046875 C-97.87781071 109.34408217 -97.87781071 109.34408217 -98.25 105.25 C-97.9638877 101.53054014 -96.77106803 99.24695805 -95 96 C-95 95.34 -95 94.68 -95 94 C-96.0725 93.7525 -97.145 93.505 -98.25 93.25 C-102.03658647 91.98780451 -103.57206878 91.08160501 -106 88 C-107.32555219 84.02334343 -107.30174047 80.35330334 -107.375 76.1875 C-107.43107422 74.99543945 -107.43107422 74.99543945 -107.48828125 73.77929688 C-107.55083248 69.57793922 -107.33438382 66.84808992 -104.640625 63.51171875 C-101.1679198 60.2085391 -98.7771746 59 -94 59 C-94.433125 58.23816406 -94.433125 58.23816406 -94.875 57.4609375 C-99.07219007 49.67864758 -99.07219007 49.67864758 -98 45 C-95.94233468 42.05269702 -93.52752265 39.54711585 -91 37 C-90.35546875 36.3296875 -89.7109375 35.659375 -89.046875 34.96875 C-83.38581917 29.16497847 -83.38581917 29.16497847 -79.375 28.6875 C-74.96384719 29.09594007 -71.8076316 30.83525513 -68 33 C-67.938125 32.13375 -67.87625 31.2675 -67.8125 30.375 C-66.75773272 25.99365901 -65.09217359 24.24301132 -62 21 C-58.5035032 19.2517516 -54.53951945 19.77291164 -50.6875 19.75 C-49.83220703 19.729375 -48.97691406 19.70875 -48.09570312 19.6875 C-43.27206742 19.65760915 -39.8439597 19.73936492 -36 23 C-34.17179136 26.53033392 -33 29.01080638 -33 33 C-31.989375 32.34 -30.97875 31.68 -29.9375 31 C-26.13547593 28.85369609 -23.40321363 28.35953256 -19 29 C-12.66881047 32.23294785 -5.75342529 38.2936374 -3 45 C-2.24011538 50.57248724 -4.32457683 54.29412174 -7 59 C-4.69 59.33 -2.38 59.66 0 60 C0 40.2 0 20.4 0 0 Z " fill="#7545EC" transform="translate(389,81)"/>
<path d="M0 0 C4.2890755 2.51519859 7.62903851 5.96283747 9.6875 10.5 C9.91753047 12.04643506 10.10426229 13.59965039 10.25805664 15.15551758 C10.34068253 15.96837723 10.42330841 16.78123688 10.50843811 17.61872864 C10.56752853 18.23954819 10.62661896 18.86036774 10.6875 19.5 C32.77598316 19.46277511 54.86430172 19.40282877 76.95264816 19.31609726 C87.20948283 19.27634836 97.46624123 19.2439348 107.72314453 19.22900391 C116.66678486 19.21596587 125.61025709 19.18894636 134.55380273 19.14538693 C139.28599678 19.12282048 144.01798388 19.10708642 148.75023651 19.10811615 C153.21220298 19.10886562 157.67371278 19.09080052 162.13556099 19.05883217 C163.76563239 19.05037319 165.39575526 19.04855579 167.02583885 19.05419731 C180.78348955 19.09543729 192.34724808 17.3327549 202.6875 7.5 C204.45877413 5.55881947 206.06905407 3.57363384 207.6875 1.5 C208.0175 1.5 208.3475 1.5 208.6875 1.5 C209.31968966 14.93051821 209.19442845 25.7886919 200.5625 36.875 C194.94013763 42.79392654 186.98582012 47.26746043 178.75281751 47.62880117 C177.59933179 47.63058974 176.44584607 47.63237831 175.25740623 47.63422108 C174.61082807 47.63657331 173.96424991 47.63892554 173.29807848 47.64134905 C171.1225608 47.6480278 168.947103 47.64758117 166.77157593 47.64717102 C165.19957597 47.65047034 163.62757686 47.65419606 162.05557883 47.6583125 C157.72851988 47.6683328 153.40147481 47.67204934 149.07440591 47.67470181 C144.41029537 47.67860476 139.74619581 47.68818309 135.08209229 47.69691467 C123.81479852 47.71667913 112.54750385 47.72674518 101.28019708 47.73564246 C95.97474734 47.74002531 90.66929859 47.74539212 85.36384964 47.75063133 C67.72831873 47.76764344 50.09278845 47.78213782 32.4572506 47.78938007 C27.88051732 47.79128998 23.30378404 47.79321031 18.72705078 47.79516602 C17.58952105 47.79564976 16.45199132 47.7961335 15.27999099 47.7966319 C-3.14909706 47.804933 -21.57812022 47.83027137 -40.00717993 47.86274669 C-58.92602377 47.89581343 -77.84483463 47.91382848 -96.76370752 47.91702431 C-107.38671859 47.91918974 -118.00963503 47.92794327 -128.63261795 47.95348549 C-137.67924324 47.97518718 -146.7257509 47.98324549 -155.77239926 47.97351871 C-160.38731513 47.96897251 -165.00198827 47.97087885 -169.61687088 47.99028015 C-173.84497263 48.00790172 -178.07265441 48.00692235 -182.30076055 47.99138286 C-183.82705887 47.98900526 -185.35338619 47.99333829 -186.87964018 48.00521151 C-199.03166164 48.09385999 -209.30140373 46.23979444 -218.3125 37.5 C-225.17479601 29.11274932 -227.82169937 21.23980957 -227.5 10.5 C-227.48646484 9.62988281 -227.47292969 8.75976562 -227.45898438 7.86328125 C-227.42401678 5.74191373 -227.3702253 3.62087026 -227.3125 1.5 C-226.55582031 2.26183594 -225.79914063 3.02367187 -225.01953125 3.80859375 C-215.69470014 13.07960188 -206.58912615 18.71847189 -192.97889709 18.7784729 C-192.27462867 18.7842653 -191.57036024 18.7900577 -190.84475034 18.79602563 C-188.50330497 18.81292502 -186.1620579 18.81589337 -183.82055664 18.81884766 C-182.13481163 18.8281528 -180.4490712 18.83832234 -178.76333618 18.84928894 C-174.19985636 18.87653695 -169.63640731 18.89172293 -165.07286763 18.90471697 C-160.29890373 18.92037027 -155.52500247 18.94715348 -150.75108337 18.9727478 C-141.71672684 19.01949665 -132.68235847 19.05625961 -123.64794296 19.08942068 C-113.36015042 19.12766958 -103.07242086 19.1770725 -92.78468144 19.22740483 C-71.62733416 19.33066677 -50.46994699 19.41994583 -29.3125 19.5 C-29.22447617 18.56877068 -29.22447617 18.56877068 -29.13467407 17.61872864 C-29.05236542 16.80586899 -28.97005676 15.99300934 -28.88525391 15.15551758 C-28.80594635 14.34907303 -28.72663879 13.54262848 -28.64492798 12.71174622 C-27.89458288 7.71946807 -24.40359567 4.35121936 -20.74609375 1.11328125 C-14.68574059 -3.04864803 -6.60449949 -2.83411472 0 0 Z " fill="#2B8EF9" transform="translate(265.3125,355.5)"/>
<path d="M0 0 C0.8720294 -0.00384115 1.7440588 -0.00768229 2.64251333 -0.01163983 C3.59609573 -0.01077335 4.54967812 -0.00990687 5.53215694 -0.00901413 C6.54870151 -0.01198525 7.56524608 -0.01495637 8.61259502 -0.01801753 C12.02938903 -0.02671037 15.44614803 -0.02821329 18.86295223 -0.02970505 C21.30871817 -0.03433289 23.75448339 -0.0393575 26.20024776 -0.04475021 C32.8534312 -0.0578814 39.50660091 -0.06435764 46.15979409 -0.06876087 C50.31682382 -0.07152524 54.47385124 -0.07576303 58.6308794 -0.08026505 C70.14746517 -0.09245843 81.66404909 -0.10275658 93.18064117 -0.10614014 C94.28613389 -0.10646949 94.28613389 -0.10646949 95.4139598 -0.10680549 C96.15269434 -0.10702377 96.89142889 -0.10724204 97.65254933 -0.10746694 C99.14944144 -0.1079104 100.64633356 -0.10835696 102.14322567 -0.10880661 C103.25698508 -0.10913875 103.25698508 -0.10913875 104.39324468 -0.10947761 C116.41332643 -0.1134221 128.43334744 -0.13086514 140.45340575 -0.15416613 C152.80349344 -0.1779129 165.15355069 -0.19034355 177.50366157 -0.19150805 C184.43395543 -0.19242312 191.36417018 -0.19813246 198.29444218 -0.21632767 C204.8172677 -0.23339299 211.33997002 -0.23495642 217.86282063 -0.22618866 C220.25285525 -0.22541904 222.64289799 -0.22975107 225.03291225 -0.23964691 C228.30456619 -0.25239517 231.57569165 -0.24647355 234.84734249 -0.23606491 C236.2542935 -0.24814952 236.2542935 -0.24814952 237.68966776 -0.26047826 C249.24172941 -0.17497035 258.00631338 2.71883942 266.31778622 10.76033401 C272.00041455 16.86809664 274.63419247 22.78441254 274.63419247 31.13142776 C173.65419247 31.13142776 72.67419247 31.13142776 -31.36580753 31.13142776 C-31.36580753 22.05144351 -28.84535561 16.44881717 -22.67830753 9.81892776 C-16.42496028 3.95715634 -8.64743523 0.01433457 0 0 Z " fill="#EDF3F7" transform="translate(134.36580753326416,37.86857223510742)"/>
<path d="M0 0 C1.86313724 1.79147811 3.66494292 3.56756695 5.25 5.61328125 C11.96690395 14.21931444 22.89090766 19.87872581 33.69530106 21.37268925 C36.48504796 21.50990461 39.25046907 21.53377818 42.04345703 21.50793457 C43.09865099 21.51417453 44.15384495 21.5204145 45.24101448 21.52684355 C48.7468469 21.54269012 52.25197597 21.53020158 55.7578125 21.51757812 C58.28343102 21.52300292 60.80904637 21.53012758 63.33465576 21.53881836 C69.46441855 21.55512556 75.59392453 21.55279249 81.72369051 21.5411678 C86.70857123 21.53210831 91.69339709 21.5309203 96.67828369 21.53526306 C97.74534898 21.53618246 97.74534898 21.53618246 98.83397114 21.53712043 C100.27943724 21.53839942 101.72490332 21.53969628 103.17036939 21.5410108 C116.70215555 21.55239778 130.23383306 21.53933252 143.7656014 21.51780933 C155.3587626 21.49994003 166.95176356 21.50304467 178.54492188 21.52148438 C192.03060732 21.54292444 205.5161977 21.55129932 219.00189781 21.53903532 C220.4418373 21.53776122 221.8817768 21.53650373 223.32171631 21.53526306 C224.38423793 21.53433741 224.38423793 21.53433741 225.46822464 21.53339306 C230.44305283 21.52994954 235.41782037 21.53574686 240.39263916 21.54518127 C247.09703674 21.55761709 253.80108636 21.54867445 260.50547028 21.52560425 C262.96161651 21.52032867 265.41778827 21.52181111 267.87392426 21.53065491 C271.23513655 21.54163905 274.59539114 21.52781097 277.95654297 21.50793457 C279.4030231 21.5213189 279.4030231 21.5213189 280.87872505 21.53497362 C292.33399406 21.40421705 304.13461163 16.82608929 312.33203125 8.68359375 C314.27972731 6.49726106 316.14915495 4.26819246 318 2 C318.66 1.34 319.32 0.68 320 0 C320.95789888 8.23793034 317.69743057 16.1912489 312.98046875 22.8515625 C308.25227335 28.33328817 303.0642829 32.12231016 297 36 C297.73637695 36.0093457 298.47275391 36.01869141 299.23144531 36.02832031 C302.57164218 36.08204155 305.91044119 36.16568622 309.25 36.25 C310.98830078 36.27126953 310.98830078 36.27126953 312.76171875 36.29296875 C314.43427734 36.34130859 314.43427734 36.34130859 316.140625 36.390625 C317.16704102 36.41157227 318.19345703 36.43251953 319.25097656 36.45410156 C322.66819923 37.13269036 323.87622777 38.28691531 326 41 C326.4375 43.5625 326.4375 43.5625 326 46 C324.45320818 47.98594043 323.56174281 48.88941087 321.06494141 49.38095093 C319.96931885 49.3845311 319.96931885 49.3845311 318.8515625 49.38818359 C317.60511963 49.40236832 317.60511963 49.40236832 316.33349609 49.4168396 C315.43969238 49.41076691 314.54588867 49.40469421 313.625 49.3984375 C312.24368896 49.40274277 312.24368896 49.40274277 310.83447266 49.40713501 C308.88768906 49.40917631 306.94088498 49.40364183 304.99414062 49.39111328 C302.01125301 49.37506056 299.02972039 49.39095972 296.046875 49.41015625 C294.156247 49.40817383 292.26561985 49.40433018 290.375 49.3984375 C289.48119629 49.40451019 288.58739258 49.41058289 287.66650391 49.4168396 C286.83554199 49.40738312 286.00458008 49.39792664 285.1484375 49.38818359 C284.41802246 49.38579681 283.68760742 49.38341003 282.93505859 49.38095093 C281 49 281 49 279.17822266 47.91323853 C278 46 278 46 279 39 C200.46 39 121.92 39 41 39 C41.495 42.465 41.495 42.465 42 46 C40.82177734 47.91323853 40.82177734 47.91323853 39 49 C37.06494141 49.38095093 37.06494141 49.38095093 34.8515625 49.38818359 C33.60511963 49.40236832 33.60511963 49.40236832 32.33349609 49.4168396 C31.43969238 49.41076691 30.54588867 49.40469421 29.625 49.3984375 C28.24368896 49.40274277 28.24368896 49.40274277 26.83447266 49.40713501 C24.88768906 49.40917631 22.94088498 49.40364183 20.99414062 49.39111328 C18.01125301 49.37506056 15.02972039 49.39095972 12.046875 49.41015625 C10.156247 49.40817383 8.26561985 49.40433018 6.375 49.3984375 C5.48119629 49.40451019 4.58739258 49.41058289 3.66650391 49.4168396 C2.42006104 49.40265488 2.42006104 49.40265488 1.1484375 49.38818359 C0.41802246 49.38579681 -0.31239258 49.38341003 -1.06494141 49.38095093 C-3.56174281 48.88941087 -4.45320818 47.98594043 -6 46 C-6.4375 43.5625 -6.4375 43.5625 -6 41 C-3.87622777 38.28691531 -2.66819923 37.13269036 0.74902344 36.45410156 C1.77543945 36.4331543 2.80185547 36.41220703 3.859375 36.390625 C4.97441406 36.35839844 6.08945313 36.32617188 7.23828125 36.29296875 C8.97658203 36.27169922 8.97658203 36.27169922 10.75 36.25 C11.92433594 36.22035156 13.09867188 36.19070313 14.30859375 36.16015625 C17.20579822 36.08949273 20.10219955 36.03677734 23 36 C22.39309326 35.60312988 21.78618652 35.20625977 21.16088867 34.79736328 C20.3588501 34.26868652 19.55681152 33.74000977 18.73046875 33.1953125 C17.93793701 32.67469238 17.14540527 32.15407227 16.32885742 31.61767578 C8.03338063 25.85545445 1.83482358 17.10207463 0 7 C-0.03888349 4.66699067 -0.0448635 2.33290199 0 0 Z " fill="#CCD4DD" transform="translate(96,222)"/>
<path d="M0 0 C1.02657036 -0.00638882 2.05314072 -0.01277764 3.11081928 -0.01936007 C6.54961322 -0.03461674 9.98725635 -0.01414313 13.42601013 0.00622559 C15.8916614 0.00272464 18.35731041 -0.00293363 20.82295227 -0.0105896 C26.82380198 -0.02336919 32.82420118 -0.01289388 38.8249926 0.00852364 C45.81380626 0.03255087 52.8025426 0.03081825 59.79138838 0.02821773 C72.26097453 0.02452872 84.7304012 0.0453437 97.19993591 0.07946777 C109.29893524 0.11256553 121.39776723 0.12672474 133.49681091 0.1204834 C146.6743993 0.11371911 159.85191762 0.11618014 173.02949566 0.1358428 C173.7263234 0.13688229 174.42315114 0.13792177 175.14109487 0.13899276 C176.54061417 0.14108364 177.94013344 0.14319461 179.33965268 0.14532593 C184.2110252 0.15222051 189.08237614 0.15289102 193.95375252 0.15144348 C200.50945582 0.14985334 207.06498614 0.16475017 213.62064743 0.19067001 C216.0293156 0.1978437 218.43800508 0.19990969 220.84668159 0.19655228 C224.12912641 0.19284906 227.41098239 0.20754532 230.69335938 0.22705078 C232.13031602 0.21905889 232.13031602 0.21905889 233.59630209 0.21090555 C239.76291807 0.27432779 243.30195455 1.14022665 247.78318787 5.62145996 C248.2875075 8.65910612 248.23261494 11.57835135 247.78318787 14.62145996 C245.58487423 17.65361671 244.33355593 18.43800394 240.78318787 19.62145996 C239.36141523 19.71500507 237.9356842 19.75409386 236.51084423 19.75847435 C235.63423899 19.76354889 234.75763375 19.76862344 233.85446471 19.77385175 C232.89066793 19.77434951 231.92687115 19.77484727 230.93386841 19.77536011 C229.91056689 19.77974236 228.88726536 19.78412462 227.8329547 19.78863966 C224.38757161 19.80204553 220.94221411 19.80821051 217.49681091 19.81433105 C215.03322737 19.82223049 212.56964499 19.83049934 210.10606384 19.83911133 C202.70196208 19.86308071 195.29786454 19.87825998 187.89373729 19.8911714 C185.80272096 19.89488359 183.7117053 19.89885679 181.62068963 19.90292406 C168.63668589 19.92815782 155.6526811 19.95021158 142.66865826 19.96265221 C139.66166874 19.96558191 136.65467925 19.96854357 133.64768982 19.97155762 C132.90031588 19.97230367 132.15294194 19.97304972 131.3829203 19.97381838 C119.27205535 19.98647591 107.16133707 20.0197051 95.05054071 20.06135945 C82.61801934 20.10377011 70.1855731 20.12734611 57.75297958 20.13257277 C50.77190256 20.13598759 43.7910549 20.14775105 36.81004906 20.18067551 C30.24452424 20.21158977 23.67932703 20.21709778 17.11371613 20.20529175 C14.70222039 20.20507032 12.29070652 20.21343198 9.87927437 20.23094559 C6.59018294 20.25353585 3.30255583 20.24538813 0.01345825 20.22946167 C-0.94364636 20.24334376 -1.90075098 20.25722584 -2.88685876 20.2715286 C-7.29147651 20.21887838 -10.29088464 20.03421777 -13.80639935 17.22603798 C-16.26193514 14.57270218 -17.04161353 13.66205934 -16.96681213 10.12145996 C-16.98228088 9.38927246 -16.99774963 8.65708496 -17.01368713 7.90270996 C-14.2459895 -0.02050289 -7.14029194 -0.09352026 0 0 Z " fill="#2CB4FE" transform="translate(140.21681213378906,454.3785400390625)"/>
<path d="M0 0 C3.63 0 7.26 0 11 0 C11.25394531 0.77085938 11.50789063 1.54171875 11.76953125 2.3359375 C12.11371094 3.33882813 12.45789063 4.34171875 12.8125 5.375 C13.14894531 6.37273437 13.48539062 7.37046875 13.83203125 8.3984375 C14.8506575 11.2845709 14.8506575 11.2845709 18 13 C23.87462608 13.48152673 26.73751798 12.75084287 32 10 C34.92150969 10.08592676 35.96553299 10.97391685 38.3125 12.75 C40 15 40 15 39.875 17.5625 C39 20 39 20 37 23 C36.49435546 29.35033197 36.49435546 29.35033197 39 35 C42.68734758 37.45823172 45.69699971 38.01242616 50 39 C50 42.3 50 45.6 50 49 C49.31292969 49.24234375 48.62585938 49.4846875 47.91796875 49.734375 C47.01691406 50.06953125 46.11585938 50.4046875 45.1875 50.75 C44.29417969 51.07484375 43.40085937 51.3996875 42.48046875 51.734375 C39.69112675 53.15759832 38.54349348 54.29511567 37 57 C36.42998606 62.89014404 37.24522681 65.72999911 40 71 C39.91407324 73.92150969 39.02608315 74.96553299 37.25 77.3125 C35 79 35 79 32.4375 78.875 C30 78 30 78 27 76 C22.35378748 75.17342661 18.99778817 75.32065486 15.0625 78 C12.50757024 81.71626148 11.82279727 84.58681467 11 89 C7.7 89 4.4 89 1 89 C0.75765625 88.31292969 0.5153125 87.62585938 0.265625 86.91796875 C-0.23710937 85.56638672 -0.23710937 85.56638672 -0.75 84.1875 C-1.07484375 83.29417969 -1.3996875 82.40085937 -1.734375 81.48046875 C-3.16429073 78.67801046 -4.26910437 77.53269645 -7 76 C-12.60695302 74.9769066 -16.24040811 76.00825652 -21 79 C-24.48956136 78.04830145 -26.57709942 75.59596491 -29 73 C-27.125 67.25 -27.125 67.25 -26 65 C-25.49483776 59.69616675 -25.49483776 59.69616675 -27.19140625 54.8515625 C-29.41471531 52.57543185 -31.12721384 52.04487952 -34.1875 51.25 C-36.5696875 50.63125 -36.5696875 50.63125 -39 50 C-39 46.37 -39 42.74 -39 39 C-38.22914063 38.74605469 -37.45828125 38.49210937 -36.6640625 38.23046875 C-35.66117187 37.88628906 -34.65828125 37.54210937 -33.625 37.1875 C-32.62726563 36.85105469 -31.62953125 36.51460937 -30.6015625 36.16796875 C-27.7154291 35.1493425 -27.7154291 35.1493425 -26 32 C-25.191697 26.39436619 -25.88598295 22.7387216 -29 18 C-28.91249733 15.1124118 -28.00304621 14.00402535 -26.25 11.6875 C-24 10 -24 10 -21.5 10.125 C-19 11 -19 11 -17.1875 12.0625 C-13.90082246 13.47107609 -10.51500552 13.6384678 -7 13 C-4.24289594 11.46044919 -3.18901513 10.447853 -1.953125 7.51953125 C-1.72109375 6.62621094 -1.4890625 5.73289062 -1.25 4.8125 C-0.8375 3.224375 -0.425 1.63625 0 0 Z " fill="#C9D1DA" transform="translate(333,113)"/>
<path d="M0 0 C1.28293945 -0.0309375 1.28293945 -0.0309375 2.59179688 -0.0625 C7.41543258 -0.09239085 10.8435403 -0.01063508 14.6875 3.25 C16.51570864 6.78033392 17.6875 9.26080638 17.6875 13.25 C18.698125 12.59 19.70875 11.93 20.75 11.25 C24.55202407 9.10369609 27.28428637 8.60953256 31.6875 9.25 C38.01868953 12.48294785 44.93407471 18.5436374 47.6875 25.25 C48.44738462 30.82248724 46.36292317 34.54412174 43.6875 39.25 C45.5128125 39.5903125 45.5128125 39.5903125 47.375 39.9375 C51.76519771 40.75601144 54.02549062 42.68538158 56.6875 46.25 C57.41344096 49.58129136 57.38673647 52.78994401 57.3125 56.1875 C57.33183594 57.06857422 57.35117187 57.94964844 57.37109375 58.85742188 C57.33830932 63.23414263 57.11583248 66.31361834 54.3125 69.79296875 C50.83700145 73.04607676 48.43424412 74.25 43.6875 74.25 C44.3475 75.260625 45.0075 76.27125 45.6875 77.3125 C47.84090244 81.17003387 48.47032581 83.78789288 47.6875 88.25 C44.25021308 94.5851456 38.17119272 101.00815364 31.6875 104.25 C26.07552625 104.91809211 22.42329098 102.94242939 17.6875 100.25 C17.31625 102.10625 17.31625 102.10625 16.9375 104 C15.9961645 107.77201816 14.86108435 109.84576943 11.6875 112.25 C7.71084343 113.57555219 4.04080334 113.55174047 -0.125 113.625 C-1.31706055 113.68107422 -1.31706055 113.68107422 -2.53320312 113.73828125 C-6.68751464 113.80013204 -9.4702892 113.58730601 -12.80078125 110.96484375 C-15.97707971 107.53167512 -16.43706796 105.71470341 -17.3125 101.25 C-21.39214281 102.55155006 -21.39214281 102.55155006 -25.3125 104.25 C-27.9375 104.75 -27.9375 104.75 -31.3125 104.25 C-34.2789363 102.2222332 -36.76695723 99.77596167 -39.3125 97.25 C-39.9828125 96.60546875 -40.653125 95.9609375 -41.34375 95.296875 C-47.19031071 89.59408217 -47.19031071 89.59408217 -47.5625 85.5 C-47.2763877 81.78054014 -46.08356803 79.49695805 -44.3125 76.25 C-44.3125 75.59 -44.3125 74.93 -44.3125 74.25 C-45.92125 73.87875 -45.92125 73.87875 -47.5625 73.5 C-51.34908647 72.23780451 -52.88456878 71.33160501 -55.3125 68.25 C-56.63805219 64.27334343 -56.61424047 60.60330334 -56.6875 56.4375 C-56.72488281 55.64279297 -56.76226562 54.84808594 -56.80078125 54.02929688 C-56.86333248 49.82793922 -56.64688382 47.09808992 -53.953125 43.76171875 C-50.4804198 40.4585391 -48.0896746 39.25 -43.3125 39.25 C-43.745625 38.48816406 -43.745625 38.48816406 -44.1875 37.7109375 C-48.38469007 29.92864758 -48.38469007 29.92864758 -47.3125 25.25 C-45.25483468 22.30269702 -42.84002265 19.79711585 -40.3125 17.25 C-39.66796875 16.5796875 -39.0234375 15.909375 -38.359375 15.21875 C-32.69831917 9.41497847 -32.69831917 9.41497847 -28.6875 8.9375 C-24.27634719 9.34594007 -21.1201316 11.08525513 -17.3125 13.25 C-17.2196875 11.950625 -17.2196875 11.950625 -17.125 10.625 C-16.07023272 6.24365901 -14.40467359 4.49301132 -11.3125 1.25 C-7.8160032 -0.4982484 -3.85201945 0.02291164 0 0 Z M-5.3125 12.25 C-5.93125 14.6321875 -5.93125 14.6321875 -6.5625 17.0625 C-7.35995332 20.1326953 -7.88137467 21.83420758 -10.1796875 24.05078125 C-13.45370024 25.89166387 -16.69335323 25.80195482 -20.3125 25.25 C-22.32776169 24.28112419 -24.33083966 23.2858679 -26.3125 22.25 C-29.23400969 22.33592676 -30.27803299 23.22391685 -32.625 25 C-34.59189339 27.12387964 -34.59189339 27.12387964 -34.1875 29.8125 C-33.34889506 32.45644784 -33.34889506 32.45644784 -31.3125 35.25 C-30.66131954 39.36152312 -30.56853557 43.02084137 -32.75 46.625 C-36.42818976 48.95751058 -40.13454976 50.0211911 -44.3125 51.25 C-44.3125 54.88 -44.3125 58.51 -44.3125 62.25 C-41.9303125 62.86875 -41.9303125 62.86875 -39.5 63.5 C-36.4298047 64.29745332 -34.72829242 64.81887467 -32.51171875 67.1171875 C-30.67235256 70.38850327 -30.75394051 73.6333273 -31.3125 77.25 C-32.3125 79.25 -33.3125 81.25 -34.3125 83.25 C-33.38568782 86.75129044 -30.91427785 88.82167401 -28.3125 91.25 C-24.51702079 90.28223902 -24.51702079 90.28223902 -21.3125 88.25 C-16.67374249 87.57910532 -13.34493589 87.53178373 -9.4375 90.25 C-6.8890363 93.84783111 -5.66153844 97.06088062 -4.3125 101.25 C-1.0125 101.25 2.2875 101.25 5.6875 101.25 C6.1 99.661875 6.5125 98.07375 6.9375 96.4375 C7.72856218 93.39191059 8.26171793 91.66851926 10.51953125 89.44921875 C14.14511712 87.44371449 17.65667668 87.67932788 21.6875 88.25 C24.5 89.8125 24.5 89.8125 26.6875 91.25 C29.5750882 91.16249733 30.68347465 90.25304621 33 88.5 C34.96122056 86.38441542 34.96122056 86.38441542 34.5625 83.75 C33.79507419 81.30033583 33.79507419 81.30033583 32.625 79.4375 C31.17676289 76.05828008 31.01243594 72.81718059 31.6875 69.25 C35.13900585 64.39631989 39.21758255 63.01149884 44.6875 61.25 C44.6875 57.95 44.6875 54.65 44.6875 51.25 C43.264375 50.816875 41.84125 50.38375 40.375 49.9375 C37.01280274 48.91422257 34.95825927 47.96792417 32.6875 45.25 C31.097337 42.069674 31.2804977 38.71285564 31.6875 35.25 C32.6476817 33.56008021 33.64105934 31.88790712 34.6875 30.25 C34.59999733 27.3624118 33.69054621 26.25402535 31.9375 23.9375 C29.82191542 21.97627944 29.82191542 21.97627944 27.1875 22.375 C24.73783583 23.14242581 24.73783583 23.14242581 22.875 24.3125 C19.49508643 25.76103439 16.30258181 25.82394082 12.6875 25.25 C8.00589386 22.3398124 7.1669785 17.28022689 5.6875 12.25 C2.0575 12.25 -1.5725 12.25 -5.3125 12.25 Z " fill="#2F2E30" transform="translate(338.3125,100.75)"/>
<path d="M0 0 C7.76338062 -0.0699099 15.52668569 -0.12301727 23.29030323 -0.15543652 C26.89636775 -0.17100636 30.50221485 -0.1920828 34.1081543 -0.22631836 C37.59654017 -0.25922567 41.08471864 -0.27691805 44.57324791 -0.28463173 C46.53334273 -0.29276668 48.49335562 -0.31613435 50.45332336 -0.33988953 C63.14105891 -0.3422452 72.46548815 1.71022868 81.68359375 10.62890625 C87.36622208 16.73666887 90 22.65298478 90 31 C66.24 31 42.48 31 18 31 C17.67 28.03 17.34 25.06 17 22 C15.7625 22.0825 14.525 22.165 13.25 22.25 C10.17880225 22.23363483 9.14345281 22.08747123 6.4375 20.4375 C4.41906082 17.01492921 5.12938715 14.77265569 6 11 C6.99 10.67 7.98 10.34 9 10 C7.8758824 8.70756532 6.75067408 7.41607925 5.625 6.125 C4.99851562 5.40570313 4.37203125 4.68640625 3.7265625 3.9453125 C2.52573166 2.5923402 1.2791655 1.2791655 0 0 Z " fill="#CAD2DA" transform="translate(319,38)"/>
<path d="M0 0 C21.12 0 42.24 0 64 0 C74 25 74 25 74 28 C46.28 28 18.56 28 -10 28 C-8.05634937 18.28174684 -3.61145718 9.22927946 0 0 Z " fill="#7545EB" transform="translate(224,415)"/>
<path d="M0 0 C6.84715543 3.70284236 10.60472378 9.12351006 14.0234375 15.9609375 C14.85660739 24.3981009 14.96900262 31.70196703 9.94140625 38.8671875 C5.02113972 44.23839495 -0.4466139 47.56618484 -7.7109375 48.19921875 C-16.786509 48.42258126 -22.12823091 46.80970672 -28.7890625 40.6484375 C-34.36061583 34.61894828 -35.49245992 28.93034317 -35.26171875 20.89453125 C-34.50655012 13.12560461 -31.18709904 7.43005347 -25.1796875 2.48046875 C-17.75248228 -2.50357686 -8.36091643 -2.91864012 0 0 Z " fill="#2F3031" transform="translate(348.9765625,134.0390625)"/>
<path d="M0 0 C31.89079594 -0.06841866 63.78157103 -0.12151913 95.6724232 -0.15319599 C99.43631936 -0.15694817 103.20021538 -0.16083113 106.96411133 -0.16479492 C108.08811046 -0.16597532 108.08811046 -0.16597532 109.23481665 -0.16717956 C121.37236485 -0.1802381 133.50987049 -0.20389441 145.64739343 -0.23145839 C158.09902156 -0.25950013 170.55062737 -0.27617365 183.00228578 -0.28226548 C190.68736741 -0.28638449 198.37232872 -0.29940008 206.05737332 -0.3237494 C211.94749348 -0.3414625 217.83755168 -0.34336873 223.72769928 -0.33932304 C226.14605514 -0.34015023 228.56441544 -0.34614205 230.98274422 -0.35761642 C234.2785977 -0.37249095 237.57393183 -0.36897172 240.86979675 -0.36076355 C242.31289248 -0.37387134 242.31289248 -0.37387134 243.78514165 -0.38724393 C249.97124412 -0.34545832 253.50440256 0.50440256 258 5 C258.50431963 8.03764616 258.44942707 10.95689139 258 14 C255.80168636 17.03215675 254.55036806 17.81654398 251 19 C248.99095356 19.0890016 246.97903032 19.11760452 244.96801758 19.11352539 C243.72695755 19.11344986 242.48589752 19.11337433 241.20722961 19.11329651 C239.85299642 19.10818991 238.49876363 19.10297391 237.14453125 19.09765625 C235.75876415 19.09579083 234.37299639 19.09436751 232.98722839 19.09336853 C229.3425209 19.0895531 225.69785335 19.07973113 222.05316162 19.06866455 C218.33297262 19.0584295 214.61277715 19.05386642 210.89257812 19.04882812 C203.59503389 19.03810798 196.29752254 19.02104325 189 19 C189.16226074 18.40147217 189.32452148 17.80294434 189.49169922 17.1862793 C190.14890482 14.35953762 190.13206308 11.71189496 190.125 8.8125 C190.12757813 7.74644531 190.13015625 6.68039062 190.1328125 5.58203125 C190.29258972 3.06930652 190.29258972 3.06930652 189 2 C186.55930041 1.88992855 184.14628514 1.84504214 181.70457458 1.84178162 C180.93192876 1.83684364 180.15928294 1.83190566 179.36322361 1.82681805 C176.75443977 1.8113666 174.14568068 1.80306187 171.53686523 1.79467773 C169.6746702 1.78510521 167.81247737 1.77509551 165.95028687 1.76467896 C160.87820782 1.73755601 155.8061194 1.71658659 150.7340076 1.69667697 C145.43952126 1.67486283 140.14506406 1.64745185 134.8506012 1.62062073 C124.81730688 1.57063181 114.78399644 1.52571606 104.75067049 1.48259836 C93.33125647 1.43327884 81.91187167 1.37834118 70.49248588 1.32291877 C46.99501784 1.20900361 23.49752177 1.10218544 0 1 C0 0.67 0 0.34 0 0 Z " fill="#2B8FF4" transform="translate(130,455)"/>
<path d="M0 0 C0.94914276 -0.00852997 1.89828552 -0.01705994 2.87619019 -0.02584839 C3.91575363 -0.02494202 4.95531708 -0.02403564 6.02638245 -0.02310181 C7.12254883 -0.02981903 8.21871521 -0.03653625 9.34809875 -0.04345703 C12.98122151 -0.06249631 16.61416014 -0.06636412 20.24732971 -0.06851196 C22.76694821 -0.0749353 25.28656595 -0.0816633 27.80618286 -0.08868408 C33.09135469 -0.10067139 38.37645758 -0.10444887 43.66163635 -0.10317993 C49.76987121 -0.10197811 55.87775295 -0.12308752 61.98589844 -0.15466726 C67.86293427 -0.18396913 73.73986217 -0.19115613 79.61697578 -0.18996048 C82.11728928 -0.19232506 84.61760523 -0.20119639 87.11787224 -0.21662521 C90.61111353 -0.23616422 94.10343973 -0.23049427 97.59669495 -0.21841431 C98.63423416 -0.22965332 99.67177338 -0.24089233 100.74075317 -0.25247192 C107.72769615 -0.19090091 107.72769615 -0.19090091 111.02261353 2.13763428 C112.71068561 4.79364903 112.930984 6.17668648 112.37623596 9.26742554 C110.76277969 11.39813021 109.87910176 12.17940299 107.21947479 12.64494896 C106.37808708 12.64608004 105.53669937 12.64721111 104.66981506 12.64837646 C103.70239883 12.65683594 102.7349826 12.66529541 101.73825073 12.67401123 C100.14849678 12.66490219 100.14849678 12.66490219 98.52662659 12.65560913 C97.40934677 12.66086609 96.29206696 12.66612305 95.14093018 12.67153931 C91.43797434 12.68477169 87.73544638 12.67598945 84.03248596 12.66586304 C81.46563128 12.66788283 78.89877715 12.67079348 76.33192444 12.67456055 C70.94835936 12.67898831 65.56495589 12.67282325 60.18141174 12.65853882 C53.95618818 12.64221192 47.73125937 12.64750035 41.50604296 12.66401803 C35.51898147 12.67926835 29.53206427 12.67765937 23.54498291 12.66887283 C20.99640868 12.66686742 18.44782696 12.66934198 15.89926147 12.67631149 C12.34125155 12.68390549 8.78381259 12.67234987 5.22584534 12.65560913 C4.16600937 12.66168182 3.1061734 12.66775452 2.01422119 12.67401123 C0.56309685 12.66132202 0.56309685 12.66132202 -0.91734314 12.64837646 C-2.17942471 12.64667985 -2.17942471 12.64667985 -3.46700287 12.64494896 C-6.14904609 12.1754792 -7.06309566 11.48049433 -8.62376404 9.26742554 C-8.49876404 5.70492554 -8.49876404 5.70492554 -7.62376404 2.26742554 C-4.44039601 0.14518018 -3.64800232 0.01481446 0 0 Z " fill="#323333" transform="translate(98.62376403808594,304.7325744628906)"/>
<path d="M0 0 C1.64446861 -0.01051392 1.64446861 -0.01051392 3.32215881 -0.02124023 C6.95005539 -0.03886131 10.57717345 -0.02718216 14.20507812 -0.01367188 C16.72326813 -0.01636559 19.24145712 -0.02024699 21.75964355 -0.02526855 C27.03889934 -0.03116919 32.31795222 -0.02296297 37.59716797 -0.00390625 C43.69807427 0.01786245 49.79844586 0.01081091 55.8993392 -0.01121187 C61.77162377 -0.03155986 67.6437053 -0.029395 73.51600647 -0.01768494 C76.01351496 -0.01501335 78.51103706 -0.01830251 81.00852966 -0.02760315 C84.49694152 -0.03774248 87.98432141 -0.02230268 91.47265625 0 C92.50862442 -0.00809692 93.54459259 -0.01619385 94.61195374 -0.02453613 C101.58728381 0.05823649 101.58728381 0.05823649 104.88171387 2.38977051 C106.57179047 5.04451731 106.79105753 6.42694284 106.23632812 9.51757812 C104.62287185 11.6482828 103.73919392 12.42955558 101.07956696 12.89510155 C100.23817924 12.89623262 99.39679153 12.8973637 98.52990723 12.89852905 C97.562491 12.90698853 96.59507477 12.915448 95.5983429 12.92416382 C94.00858894 12.91505478 94.00858894 12.91505478 92.38671875 12.90576172 C91.26943893 12.91101868 90.15215912 12.91627563 89.00102234 12.92169189 C85.2980665 12.93492427 81.59553854 12.92614203 77.89257812 12.91601562 C75.32572344 12.91803542 72.75886932 12.92094606 70.1920166 12.92471313 C64.80845152 12.9291409 59.42504805 12.92297584 54.04150391 12.90869141 C47.81628035 12.89236451 41.59135154 12.89765294 35.36613512 12.91417062 C29.37907363 12.92942094 23.39215643 12.92781196 17.40507507 12.91902542 C14.85650084 12.91702001 12.30791913 12.91949457 9.75935364 12.92646408 C6.20134371 12.93405807 2.64390475 12.92250245 -0.9140625 12.90576172 C-1.97389847 12.91183441 -3.03373444 12.9179071 -4.12568665 12.92416382 C-5.57681099 12.91147461 -5.57681099 12.91147461 -7.05725098 12.89852905 C-8.31933254 12.89683244 -8.31933254 12.89683244 -9.60691071 12.89510155 C-12.26653767 12.42955558 -13.1502156 11.6482828 -14.76367188 9.51757812 C-15.31840128 6.42694284 -15.09913422 5.04451731 -13.40905762 2.38977051 C-9.21654531 -0.57735428 -5.01457023 -0.0391929 0 0 Z " fill="#323233" transform="translate(315.763671875,304.482421875)"/>
<path d="M0 0 C3.63 0 7.26 0 11 0 C11.25394531 0.77085938 11.50789063 1.54171875 11.76953125 2.3359375 C12.11371094 3.33882813 12.45789063 4.34171875 12.8125 5.375 C13.14894531 6.37273437 13.48539062 7.37046875 13.83203125 8.3984375 C14.8506575 11.2845709 14.8506575 11.2845709 18 13 C23.87462608 13.48152673 26.73751798 12.75084287 32 10 C34.375 10.3125 34.375 10.3125 36 11 C35.58685438 15.44926052 32.49538473 17.84100104 29.4375 20.75 C28.91736328 21.25660156 28.39722656 21.76320312 27.86132812 22.28515625 C26.58089916 23.53034405 25.29132446 24.76611502 24 26 C21.25263456 24.94953674 18.71637307 23.84230033 16.140625 22.41015625 C9.63663506 19.48983241 1.65976089 19.7091541 -5.0234375 22.06640625 C-11.23620327 25.48995736 -15.42715303 30.07719325 -17.6015625 36.8828125 C-18.96151446 44.10922388 -18.85685756 50.93287797 -14.97265625 57.28125 C-13.85829381 59.25040451 -13.30376185 60.75237328 -13 63 C-14.91934784 65.29016466 -16.76347858 67.23281698 -18.9375 69.25 C-19.51435547 69.80429688 -20.09121094 70.35859375 -20.68554688 70.9296875 C-22.11277729 72.29794145 -23.55502058 73.6505038 -25 75 C-26.32 74.34 -27.64 73.68 -29 73 C-27.125 67.25 -27.125 67.25 -26 65 C-25.49483776 59.69616675 -25.49483776 59.69616675 -27.19140625 54.8515625 C-29.41471531 52.57543185 -31.12721384 52.04487952 -34.1875 51.25 C-36.5696875 50.63125 -36.5696875 50.63125 -39 50 C-39 46.37 -39 42.74 -39 39 C-38.22914063 38.74605469 -37.45828125 38.49210937 -36.6640625 38.23046875 C-35.66117187 37.88628906 -34.65828125 37.54210937 -33.625 37.1875 C-32.62726563 36.85105469 -31.62953125 36.51460937 -30.6015625 36.16796875 C-27.7154291 35.1493425 -27.7154291 35.1493425 -26 32 C-25.191697 26.39436619 -25.88598295 22.7387216 -29 18 C-28.91249733 15.1124118 -28.00304621 14.00402535 -26.25 11.6875 C-24 10 -24 10 -21.5 10.125 C-19 11 -19 11 -17.1875 12.0625 C-13.90082246 13.47107609 -10.51500552 13.6384678 -7 13 C-4.24289594 11.46044919 -3.18901513 10.447853 -1.953125 7.51953125 C-1.72109375 6.62621094 -1.4890625 5.73289062 -1.25 4.8125 C-0.8375 3.224375 -0.425 1.63625 0 0 Z " fill="#EAF0F4" transform="translate(333,113)"/>
<path d="M0 0 C5.44407395 2.39033808 8.70896559 6.33461503 11.70703125 11.38671875 C13.48718589 16.72718267 13.72506049 21.83800983 11.61328125 27.125 C8.01250023 33.58916805 4.64126864 36.47669137 -2.23046875 39.13671875 C-8.98153077 39.9550293 -12.83258403 39.79158772 -18.46875 35.8828125 C-22.83929663 32.29840273 -26.78894082 27.83286319 -27.62890625 22.08984375 C-27.72542573 16.02842041 -27.07921654 11.27118759 -23.29296875 6.38671875 C-16.208703 -0.03952232 -9.5841482 -2.56339228 0 0 Z " fill="#2D3031" transform="translate(263.29296875,354.61328125)"/>
<path d="M0 0 C7.13493991 -0.07624757 14.26977418 -0.12868289 21.4050293 -0.16479492 C23.83085049 -0.17985409 26.25664458 -0.20030562 28.68237305 -0.22631836 C32.17503562 -0.26282703 35.66733725 -0.27975553 39.16015625 -0.29296875 C40.23959 -0.30845261 41.31902374 -0.32393646 42.4311676 -0.33988953 C49.82085425 -0.34153029 54.39162136 0.73427388 60.6875 4.6875 C63.35547046 7.35547046 67 11.97282187 67 16 C43.24 16 19.48 16 -5 16 C-4.22181136 12.10905678 -3.31126232 8.86563783 -1.9375 5.1875 C-1.57527344 4.21167969 -1.21304688 3.23585938 -0.83984375 2.23046875 C-0.42412109 1.12638672 -0.42412109 1.12638672 0 0 Z " fill="#9661FA" transform="translate(219,427)"/>
<path d="M0 0 C3.5625 0.1875 3.5625 0.1875 5.5625 2.1875 C6.28839564 8.47081208 4.33997259 13.16312214 1.9765625 18.8359375 C1.41726295 20.21963531 1.41726295 20.21963531 0.84666443 21.63128662 C-0.36161448 24.61316082 -1.58665822 27.58780814 -2.8125 30.5625 C-3.6437539 32.60225617 -4.47391146 34.64245947 -5.30297852 36.68310547 C-6.93394967 40.69503577 -8.57049575 44.70462475 -10.21044922 48.71289062 C-12.09529579 53.33094915 -13.94085379 57.96271774 -15.75390625 62.609375 C-16.43670654 64.35275146 -16.43670654 64.35275146 -17.13330078 66.13134766 C-17.93746821 68.19157213 -18.73693059 70.25364187 -19.53076172 72.31787109 C-19.88025879 73.20555176 -20.22975586 74.09323242 -20.58984375 75.0078125 C-20.87851318 75.75305176 -21.16718262 76.49829102 -21.46459961 77.26611328 C-22.55151889 79.41267657 -23.52080944 80.72768992 -25.4375 82.1875 C-29.0625 82 -29.0625 82 -32.4375 81.1875 C-34.40498152 77.25253696 -33.70566123 73.11211847 -32.51531982 69.00782776 C-31.86723358 67.38855629 -31.86723358 67.38855629 -31.20605469 65.73657227 C-30.96864059 65.13392548 -30.7312265 64.53127869 -30.48661804 63.91036987 C-29.70569261 61.93675204 -28.9078939 59.97046406 -28.109375 58.00390625 C-27.55750249 56.62097865 -27.0065948 55.23766568 -26.456604 53.85398865 C-25.3036837 50.96048047 -24.14305316 48.07023935 -22.97607422 45.18237305 C-21.48835237 41.5005787 -20.01405237 37.81360877 -18.54481125 34.12440586 C-17.13349924 30.58236806 -15.71542381 27.04305055 -14.296875 23.50390625 C-14.03071129 22.83823702 -13.76454758 22.17256779 -13.4903183 21.48672676 C-4.99199588 0.27229068 -4.99199588 0.27229068 0 0 Z " fill="#2F2E31" transform="translate(196.4375,119.8125)"/>
<path d="M0 0 C1.18803223 -0.01260864 2.37606445 -0.02521729 3.60009766 -0.03820801 C4.87933105 -0.03011108 6.15856445 -0.02201416 7.4765625 -0.01367188 C8.79317871 -0.01749878 10.10979492 -0.02132568 11.46630859 -0.02526855 C14.25051684 -0.03115911 17.03421099 -0.02261601 19.81835938 -0.00390625 C23.38305583 0.01888437 26.94654768 0.00575872 30.51119995 -0.01819611 C33.9164168 -0.03614518 37.32131144 -0.02356965 40.7265625 -0.01367188 C42.6454126 -0.02581726 42.6454126 -0.02581726 44.60302734 -0.03820801 C46.38507568 -0.01929504 46.38507568 -0.01929504 48.203125 0 C49.24807129 0.00318237 50.29301758 0.00636475 51.36962891 0.00964355 C54.79465641 0.64644156 55.98449833 1.80175935 58.1015625 4.51757812 C58.5390625 7.08007812 58.5390625 7.08007812 58.1015625 9.51757812 C56.94824219 11.1456604 56.94824219 11.1456604 55.1015625 12.51757812 C52.40722656 12.89852905 52.40722656 12.89852905 49.1171875 12.90576172 C47.88581055 12.9152182 46.65443359 12.92467468 45.38574219 12.93441772 C44.04101236 12.92904801 42.69628546 12.92289506 41.3515625 12.91601562 C39.9729802 12.91803659 38.59439895 12.92094822 37.21582031 12.92471313 C34.32737036 12.92913547 31.43919883 12.92270871 28.55078125 12.90869141 C24.84826496 12.89159911 21.14640104 12.90144084 17.44390869 12.9194088 C14.59744348 12.93024934 11.75113295 12.92679916 8.90466309 12.91902542 C7.53950931 12.91702414 6.17434148 12.9194802 4.8092041 12.92646408 C2.9014513 12.93408203 0.99364926 12.92041218 -0.9140625 12.90576172 C-2.54263184 12.90218155 -2.54263184 12.90218155 -4.20410156 12.89852905 C-6.8984375 12.51757812 -6.8984375 12.51757812 -8.74511719 11.1456604 C-9.8984375 9.51757812 -9.8984375 9.51757812 -10.3359375 7.08007812 C-9.33943932 1.24344593 -5.38715123 0.01640651 0 0 Z " fill="#343434" transform="translate(363.8984375,281.482421875)"/>
<path d="M0 0 C1.18810776 -0.0127597 2.37621552 -0.02551941 3.60032654 -0.03866577 C4.88472122 -0.04089142 6.16911591 -0.04311707 7.49243164 -0.04541016 C8.8104628 -0.05206696 10.12849396 -0.05872375 11.48646545 -0.06558228 C14.27649206 -0.07755455 17.06639484 -0.08126313 19.85644531 -0.08007812 C23.42892895 -0.07987484 27.00061792 -0.10718579 30.57291317 -0.14162254 C33.98359834 -0.16922676 37.39413614 -0.16804031 40.80493164 -0.17041016 C42.08730209 -0.18478119 43.36967255 -0.19915222 44.69090271 -0.21395874 C45.88216263 -0.20780548 47.07342255 -0.20165222 48.30078125 -0.1953125 C49.34874374 -0.19816254 50.39670624 -0.20101257 51.47642517 -0.20394897 C54.91359338 0.41664526 56.09500724 1.5666748 58.21508789 4.29052734 C58.65258789 6.85302734 58.65258789 6.85302734 58.21508789 9.29052734 C57.06176758 10.91860962 57.06176758 10.91860962 55.21508789 12.29052734 C52.52075195 12.67147827 52.52075195 12.67147827 49.23071289 12.67871094 C47.99933594 12.68816742 46.76795898 12.6976239 45.49926758 12.70736694 C44.15453775 12.70199723 42.80981085 12.69584428 41.46508789 12.68896484 C40.08650559 12.69098581 38.70792434 12.69389744 37.3293457 12.69766235 C34.44089575 12.70208469 31.55272422 12.69565793 28.66430664 12.68164062 C24.96179035 12.66454833 21.25992643 12.67439006 17.55743408 12.69235802 C14.71096888 12.70319856 11.86465834 12.69974838 9.01818848 12.69197464 C7.6530347 12.68997336 6.28786687 12.69242942 4.92272949 12.6994133 C3.01497669 12.70703125 1.10717465 12.6933614 -0.80053711 12.67871094 C-2.42910645 12.67513077 -2.42910645 12.67513077 -4.09057617 12.67147827 C-6.78491211 12.29052734 -6.78491211 12.29052734 -8.66674805 10.98892212 C-9.78491211 9.29052734 -9.78491211 9.29052734 -9.65991211 5.72802734 C-8.21474439 0.05058271 -5.26305963 0.03831619 0 0 Z " fill="#343434" transform="translate(99.784912109375,281.70947265625)"/>
<path d="M0 0 C1.8125 1.125 1.8125 1.125 3 3 C3.484375 5.703125 3.484375 5.703125 3 9 C1.09794523 11.51983857 -1.20207278 13.53983415 -3.5625 15.625 C-4.8038324 16.73010413 -6.03493096 17.84684551 -7.25390625 18.9765625 C-7.80377197 19.46205566 -8.3536377 19.94754883 -8.92016602 20.44775391 C-10.2169315 21.96217153 -10.2169315 21.96217153 -9.84179688 24.01367188 C-8.18845122 27.91495384 -4.34774174 30.62323037 -1.21679688 33.40234375 C2.9010705 37.2680968 2.9010705 37.2680968 3.44140625 41.265625 C3 44 3 44 1.875 45.875 C-0.89573425 47.53744055 -2.81080881 47.33018542 -6 47 C-8.51708984 45.25927734 -8.51708984 45.25927734 -10.9609375 42.8359375 C-11.84394531 41.96066406 -12.72695312 41.08539063 -13.63671875 40.18359375 C-14.99216797 38.79333984 -14.99216797 38.79333984 -16.375 37.375 C-17.30183594 36.47136719 -18.22867188 35.56773437 -19.18359375 34.63671875 C-20.05886719 33.75371094 -20.93414062 32.87070313 -21.8359375 31.9609375 C-23.03549072 30.75123291 -23.03549072 30.75123291 -24.25927734 29.51708984 C-26.39923205 26.42270934 -26.43533866 24.68932698 -26 21 C-24.85546875 19.05078125 -24.85546875 19.05078125 -23.1875 17.3125 C-22.55714844 16.64605469 -21.92679688 15.97960937 -21.27734375 15.29296875 C-20.15005859 14.15794922 -20.15005859 14.15794922 -19 13 C-18.06352783 12.03802733 -17.12734573 11.07577221 -16.19140625 10.11328125 C-5.58117011 -0.69764626 -5.58117011 -0.69764626 0 0 Z " fill="#2F2E32" transform="translate(152,137)"/>
<path d="M0 0 C3.76646079 1.03319954 5.36026381 2.42398683 8.11865234 5.16308594 C9.44316406 6.47792969 9.44316406 6.47792969 10.79443359 7.81933594 C11.69806641 8.74230469 12.60169922 9.66527344 13.53271484 10.61621094 C14.45955078 11.52371094 15.38638672 12.43121094 16.34130859 13.36621094 C17.65421875 14.68878906 17.65421875 14.68878906 18.99365234 16.03808594 C19.79335449 16.84342773 20.59305664 17.64876953 21.41699219 18.47851562 C23.15771484 20.86621094 23.15771484 20.86621094 23.69189453 23.3503418 C22.61338224 28.42989809 18.10517926 31.68810907 14.51513672 35.21557617 C13.03882055 36.67268467 11.59416206 38.15669953 10.14990234 39.64550781 C9.22177734 40.57041016 8.29365234 41.4953125 7.33740234 42.44824219 C6.48903809 43.29620361 5.64067383 44.14416504 4.76660156 45.01782227 C1.61412952 47.25133956 -0.05711196 47.34092895 -3.84228516 46.86621094 C-5.71728516 45.67871094 -5.71728516 45.67871094 -6.84228516 43.86621094 C-7.15889083 40.97334475 -7.23945915 39.43880847 -5.55712891 37.01342773 C-4.67734375 36.1729187 -4.67734375 36.1729187 -3.77978516 35.31542969 C-3.14814453 34.69990234 -2.51650391 34.084375 -1.86572266 33.45019531 C-1.19798828 32.82435547 -0.53025391 32.19851562 0.15771484 31.55371094 C1.15931641 30.58594727 1.15931641 30.58594727 2.18115234 29.59863281 C3.82932687 28.00932166 5.48800582 26.43283192 7.15771484 24.86621094 C5.07527725 20.30652641 1.72538619 17.40755314 -1.94189453 14.10839844 C-4.47546678 11.70639652 -5.78995617 10.04478361 -6.77978516 6.66699219 C-6.84228516 3.86621094 -6.84228516 3.86621094 -5.27978516 1.42871094 C-2.84228516 -0.13378906 -2.84228516 -0.13378906 0 0 Z " fill="#2E2D30" transform="translate(217.84228515625,137.1337890625)"/>
<path d="M0 0 C1.57701187 -0.01441132 1.57701187 -0.01441132 3.18588257 -0.02911377 C4.90298935 -0.03548859 4.90298935 -0.03548859 6.65478516 -0.04199219 C7.82264557 -0.04769226 8.99050598 -0.05339233 10.1937561 -0.05926514 C12.67033985 -0.06873234 15.1469363 -0.07525591 17.62353516 -0.07910156 C21.42063283 -0.08880784 25.21718967 -0.11981615 29.01416016 -0.15136719 C31.41519859 -0.1578967 33.81624092 -0.16314737 36.21728516 -0.16699219 C37.92831924 -0.18551239 37.92831924 -0.18551239 39.67391968 -0.20440674 C40.73156525 -0.20140564 41.78921082 -0.19840454 42.87890625 -0.1953125 C43.81076752 -0.19895813 44.74262878 -0.20260376 45.70272827 -0.20635986 C48.51460183 0.2303649 49.39677113 0.89541589 51.06884766 3.16113281 C51.62088167 6.23675088 51.39881426 7.63270101 49.74072266 10.28808594 C45.44391252 13.30025035 41.00306779 12.73148734 35.88134766 12.69238281 C34.78669189 12.69620972 33.69203613 12.70003662 32.56420898 12.70397949 C30.2509672 12.70670018 27.93769474 12.69932815 25.62451172 12.68261719 C22.08182243 12.66121121 18.54116129 12.68241507 14.99853516 12.70800781 C12.75113484 12.70536457 10.50373579 12.70023966 8.25634766 12.69238281 C7.19585205 12.70047974 6.13535645 12.70857666 5.04272461 12.71691895 C-2.23505884 12.62402496 -2.23505884 12.62402496 -5.64208984 10.35839844 C-7.56665077 7.07789686 -6.8111668 4.74888404 -5.93115234 1.16113281 C-4.26966162 -0.50035791 -2.28474796 0.01676961 0 0 Z " fill="#333334" transform="translate(330.93115234375,47.8388671875)"/>
<path d="M0 0 C0.87269531 -0.0038269 1.74539063 -0.00765381 2.64453125 -0.01159668 C4.48699092 -0.0143149 6.32948924 -0.00695994 8.171875 0.00976562 C10.99045934 0.03117752 13.80649485 0.00996199 16.625 -0.015625 C18.41667229 -0.01298171 20.20834299 -0.00785669 22 0 C22.84175781 -0.00809692 23.68351562 -0.01619385 24.55078125 -0.02453613 C30.37392022 0.06868413 30.37392022 0.06868413 33.53515625 2.40429688 C35.35908955 5.05264803 35.56586178 6.3785915 35 9.53125 C33.45320818 11.51719043 32.56174281 12.42066087 30.06494141 12.91220093 C28.96931885 12.9157811 28.96931885 12.9157811 27.8515625 12.91943359 C26.60511963 12.93361832 26.60511963 12.93361832 25.33349609 12.9480896 C24.43969238 12.94201691 23.54588867 12.93594421 22.625 12.9296875 C21.24368896 12.93399277 21.24368896 12.93399277 19.83447266 12.93838501 C17.88768906 12.94042631 15.94088498 12.93489183 13.99414062 12.92236328 C11.01125301 12.90631056 8.02972039 12.92220972 5.046875 12.94140625 C3.156247 12.93942383 1.26561985 12.93558018 -0.625 12.9296875 C-1.51880371 12.93576019 -2.41260742 12.94183289 -3.33349609 12.9480896 C-4.16445801 12.93863312 -4.99541992 12.92917664 -5.8515625 12.91943359 C-6.58197754 12.91704681 -7.31239258 12.91466003 -8.06494141 12.91220093 C-10.56174281 12.42066087 -11.45320818 11.51719043 -13 9.53125 C-13.56586178 6.3785915 -13.35908955 5.05264803 -11.53515625 2.40429688 C-7.80206356 -0.35382014 -4.53139764 -0.04358781 0 0 Z " fill="#343434" transform="translate(387,258.46875)"/>
<path d="M0 0 C1.27219139 -0.00574036 1.27219139 -0.00574036 2.57008362 -0.01159668 C4.36126901 -0.01431486 6.15249416 -0.00696019 7.94360352 0.00976562 C10.67880269 0.03115146 13.41136748 0.00997595 16.14648438 -0.015625 C17.88932869 -0.01298119 19.63217138 -0.0078551 21.375 0 C22.18972275 -0.00809692 23.0044455 -0.01619385 23.84385681 -0.02453613 C27.81855151 0.04075916 29.8186676 0.26163749 33.27758789 2.40429688 C35.25390625 4.53125 35.25390625 4.53125 35.75390625 7.09375 C35.16529397 9.96323487 34.51882704 10.73308113 32.25390625 12.53125 C30.31884766 12.91220093 30.31884766 12.91220093 28.10546875 12.91943359 C26.85902588 12.93361832 26.85902588 12.93361832 25.58740234 12.9480896 C24.69359863 12.94201691 23.79979492 12.93594421 22.87890625 12.9296875 C21.49759521 12.93399277 21.49759521 12.93399277 20.08837891 12.93838501 C18.14159531 12.94042631 16.19479123 12.93489183 14.24804688 12.92236328 C11.26515926 12.90631056 8.28362664 12.92220972 5.30078125 12.94140625 C3.41015325 12.93942383 1.5195261 12.93558018 -0.37109375 12.9296875 C-1.26489746 12.93576019 -2.15870117 12.94183289 -3.07958984 12.9480896 C-3.91055176 12.93863312 -4.74151367 12.92917664 -5.59765625 12.91943359 C-6.32807129 12.91704681 -7.05848633 12.91466003 -7.81103516 12.91220093 C-10.30783656 12.42066087 -11.19930193 11.51719043 -12.74609375 9.53125 C-13.18359375 7.09375 -13.18359375 7.09375 -12.74609375 4.53125 C-9.3973122 -0.27906902 -5.4126382 -0.05365887 0 0 Z " fill="#343434" transform="translate(102.74609375,258.46875)"/>
<path d="M0 0 C3.85544798 1.99657127 5.59805092 3.39707638 8 7 C8.58760427 11.50242236 8.50290275 15.68686505 6.875 19.9375 C3.39716399 23.76311961 0.12487535 24.83930352 -4.9375 25.5625 C-9.24931245 25.41324495 -11.56515646 23.45355725 -14.65234375 20.60546875 C-17.27374019 17.48258778 -17.33275595 14.02066315 -17.2890625 10.06640625 C-16.81603804 6.6849206 -15.1444493 4.57333916 -13 2 C-8.74748617 -0.83500922 -4.99342406 -0.64456329 0 0 Z " fill="#2CB2FB" transform="translate(343,145)"/>
<path d="M0 0 C3.39631472 -0.08107913 6.79068616 -0.14053944 10.1875 -0.1875 C11.14720703 -0.21263672 12.10691406 -0.23777344 13.09570312 -0.26367188 C22.09513128 -0.35709154 22.09513128 -0.35709154 26 3 C28.49118953 6.7367843 28.2065226 8.74451819 28.125 13.1875 C28.10695313 14.45980469 28.08890625 15.73210937 28.0703125 17.04296875 C28.04710937 18.01878906 28.02390625 18.99460938 28 20 C27.24460937 19.68289062 26.48921875 19.36578125 25.7109375 19.0390625 C20.68212016 17.63099364 15.82448599 17.53601634 10.625 17.375 C9.60277344 17.33632812 8.58054687 17.29765625 7.52734375 17.2578125 C5.01851035 17.16402434 2.50928062 17.08094454 0 17 C0 11.39 0 5.78 0 0 Z " fill="#CCD4DD" transform="translate(422,126)"/>
<path d="M0 0 C0.98613281 0.00322266 1.97226563 0.00644531 2.98828125 0.00976562 C4.02082031 0.01814453 5.05335937 0.02652344 6.1171875 0.03515625 C7.67759766 0.04192383 7.67759766 0.04192383 9.26953125 0.04882812 C11.84377437 0.06063658 14.41798803 0.0785724 16.9921875 0.09765625 C16.9921875 5.70765625 16.9921875 11.31765625 16.9921875 17.09765625 C14.71441406 17.17113281 14.71441406 17.17113281 12.390625 17.24609375 C10.38279518 17.32115281 8.37498355 17.39669927 6.3671875 17.47265625 C4.86865234 17.5190625 4.86865234 17.5190625 3.33984375 17.56640625 C-1.78513351 17.77004773 -6.21050167 18.08376808 -11.0078125 20.09765625 C-11.11635233 17.86957466 -11.19364557 15.63995693 -11.2578125 13.41015625 C-11.30421875 12.16878906 -11.350625 10.92742187 -11.3984375 9.6484375 C-10.94514268 5.52798755 -9.90529929 3.98977733 -7.0078125 1.09765625 C-4.50284246 -0.15482877 -2.79927976 -0.01608781 0 0 Z " fill="#CCD4DD" transform="translate(73.0078125,125.90234375)"/>
<path d="M0 0 C0.11719175 3.83307169 0.18758077 7.66567608 0.25 11.5 C0.30027344 13.11648437 0.30027344 13.11648437 0.3515625 14.765625 C0.43614661 21.70152225 -0.26256045 26.11028721 -4 32 C-8.62657235 36.50794229 -13.099076 38.26704943 -19.51953125 38.1953125 C-21.0519043 38.18564453 -21.0519043 38.18564453 -22.61523438 38.17578125 C-23.67033203 38.15902344 -24.72542969 38.14226562 -25.8125 38.125 C-26.88693359 38.11597656 -27.96136719 38.10695312 -29.06835938 38.09765625 C-31.71246854 38.07415306 -34.35611872 38.04129575 -37 38 C-36.52269162 36.5410574 -36.04308958 35.08286504 -35.5625 33.625 C-35.16224609 32.40683594 -35.16224609 32.40683594 -34.75390625 31.1640625 C-34 29 -34 29 -33 27 C-27.25 28.875 -27.25 28.875 -25 30 C-21.90832463 30.51527923 -19.80705107 30.45014801 -17.0390625 28.90625 C-11.92256192 25.22080131 -6.85739981 20.71479962 -4 15 C-3.61556058 9.90617772 -4.12099601 7.19854749 -7 3 C-7 2.34 -7 1.68 -7 1 C-4 0 -4 0 0 0 Z " fill="#9561F8" transform="translate(389,174)"/>
<path d="M0 0 C0.84175781 -0.00257812 1.68351562 -0.00515625 2.55078125 -0.0078125 C3.87142578 0.00378906 3.87142578 0.00378906 5.21875 0.015625 C6.09917969 0.00789063 6.97960937 0.00015625 7.88671875 -0.0078125 C8.72847656 -0.00523438 9.57023437 -0.00265625 10.4375 0 C11.59668945 0.00338379 11.59668945 0.00338379 12.77929688 0.00683594 C14.71875 0.265625 14.71875 0.265625 16.71875 2.265625 C17.09375 5.703125 17.09375 5.703125 16.71875 9.265625 C14.29018424 11.91996194 12.79321605 12.25722286 9.1875 12.6640625 C7.22296875 12.65246094 7.22296875 12.65246094 5.21875 12.640625 C3.9090625 12.64835937 2.599375 12.65609375 1.25 12.6640625 C-2.35571605 12.25722286 -3.85268424 11.91996194 -6.28125 9.265625 C-6.65625 5.703125 -6.65625 5.703125 -6.28125 2.265625 C-3.87295208 -0.14267292 -3.28841444 0.00959921 0 0 Z " fill="#343535" transform="translate(302.28125,47.734375)"/>
<path d="M0 0 C4.11289267 0.85685264 5.59686932 2.20235933 8 5.625 C8 9.14633145 7.69441423 11.46764294 5.875 14.5 C2.89605036 16.28736979 0.44725099 16.56452191 -3 16.625 C-6.30261862 14.53913561 -6.90966686 12.91725427 -8.0625 9.1875 C-8 5.625 -8 5.625 -5.9375 2.6875 C-3 0.625 -3 0.625 0 0 Z " fill="#E6ECF0" transform="translate(256,365.375)"/>
<path d="M0 0 C1.9375 1.0625 1.9375 1.0625 3 3 C2.55555556 9.44444444 2.55555556 9.44444444 1 11 C-5.24521739 11.4626087 -5.24521739 11.4626087 -7.9375 9.8125 C-9.38718434 7.33950907 -9.42317323 5.82115488 -9 3 C-6.73529086 -0.64869805 -4.03159541 -0.50394943 0 0 Z " fill="#343535" transform="translate(174,48)"/>
<path d="M0 0 C1.875 1.1875 1.875 1.1875 3 3 C3.42317323 5.82115488 3.38718434 7.33950907 1.9375 9.8125 C-1.08503156 11.66501934 -3.54932719 11.37643703 -7 11 C-9 8 -9 8 -8.75 4.375 C-8.5025 3.26125 -8.255 2.1475 -8 1 C-5.20129973 -0.39935013 -3.09501208 -0.25265405 0 0 Z " fill="#343434" transform="translate(155,48)"/>
<path d="M0 0 C1.9375 1.0625 1.9375 1.0625 3 3 C2.55555556 9.44444444 2.55555556 9.44444444 1 11 C-5.24521739 11.4626087 -5.24521739 11.4626087 -7.9375 9.8125 C-9.38718434 7.33950907 -9.42317323 5.82115488 -9 3 C-6.73529086 -0.64869805 -4.03159541 -0.50394943 0 0 Z " fill="#343535" transform="translate(135,48)"/>
</svg>
